<?xml version="1.0" encoding="UTF-8" standalone="no"?>
<svg
   xmlns:dc="http://purl.org/dc/elements/1.1/"
   xmlns:cc="http://creativecommons.org/ns#"
   xmlns:rdf="http://www.w3.org/1999/02/22-rdf-syntax-ns#"
   xmlns:svg="http://www.w3.org/2000/svg"
   xmlns="http://www.w3.org/2000/svg"
   xmlns:sodipodi="http://sodipodi.sourceforge.net/DTD/sodipodi-0.dtd"
   xmlns:inkscape="http://www.inkscape.org/namespaces/inkscape"
   version="1.1"
   width="1554.6824"
   height="1370.7518"
   id="svg355"
   sodipodi:docname="Weird-Triangle.svg"
   inkscape:version="0.92.3 (2405546, 2018-03-11)">
  <metadata
     id="metadata359">
    <rdf:RDF>
      <cc:Work
         rdf:about="">
        <dc:format>image/svg+xml</dc:format>
        <dc:type
           rdf:resource="http://purl.org/dc/dcmitype/StillImage" />
        <dc:title></dc:title>
      </cc:Work>
    </rdf:RDF>
  </metadata>
  <sodipodi:namedview
     pagecolor="#ffffff"
     bordercolor="#666666"
     borderopacity="1"
     objecttolerance="10"
     gridtolerance="10"
     guidetolerance="10"
     inkscape:pageopacity="0"
     inkscape:pageshadow="2"
     inkscape:window-width="1853"
     inkscape:window-height="1016"
     id="namedview357"
     showgrid="false"
     inkscape:snap-bbox="true"
     inkscape:snap-intersection-paths="true"
     inkscape:object-paths="true"
     inkscape:snap-smooth-nodes="true"
     inkscape:snap-object-midpoints="true"
     inkscape:zoom="0.37312661"
     inkscape:cx="1946.2492"
     inkscape:cy="574.90171"
     inkscape:window-x="67"
     inkscape:window-y="27"
     inkscape:window-maximized="1"
     inkscape:current-layer="svg355"
     fit-margin-top="0"
     fit-margin-left="0"
     fit-margin-right="0"
     fit-margin-bottom="0" />
  <defs
     id="defs5" />
  <path
     style="fill:#038995;fill-opacity:1;fill-rule:evenodd;stroke:#000000;stroke-width:5;stroke-linecap:butt;stroke-linejoin:round;stroke-miterlimit:4;stroke-dasharray:none;stroke-opacity:1"
     d="m 731.73932,249.5767 45.617,26.33704 v 356.80543 l -45.5878,-26.33767 -217.76728,-125.74555 45.39959,-26.21147 172.33849,99.26608 z"
     id="path1166"
     inkscape:connector-curvature="0"
     sodipodi:nodetypes="cccccccc" />
  <path
     style="fill:#031d3e;fill-rule:evenodd;stroke:#000000;stroke-width:5;stroke-linecap:butt;stroke-linejoin:round;stroke-miterlimit:4;stroke-dasharray:none;stroke-opacity:1;fill-opacity:1"
     d="m 777.35632,632.70166 -45.617,26.33703 -309.00267,-178.40274 263.37797,-152.04376 0.01,52.66968 -172.1286,99.38725 263.3703,152.05693"
     id="path1168"
     inkscape:connector-curvature="0" />
  <path
     style="fill:#f79f70;fill-opacity:1;fill-rule:evenodd;stroke:#000000;stroke-width:5;stroke-linecap:butt;stroke-linejoin:round;stroke-miterlimit:4;stroke-dasharray:none;stroke-opacity:1"
     d="m 422.73665,480.63595 0.008,-52.66967 308.99497,-178.38958 v 304.11386 l -45.617,-25.77833 V 328.60531 Z"
     id="path1170"
     inkscape:connector-curvature="0" />
  <path
     sodipodi:nodetypes="cccccccc"
     inkscape:connector-curvature="0"
     id="path1673"
     d="m 1131.9608,427.98828 v 52.674 l -309.00258,178.40271 0.015,-52.64902 0.015,-251.46478 45.3996,26.21147 0.2023,198.88255 z"
     style="fill:#038995;fill-opacity:1;fill-rule:evenodd;stroke:#000000;stroke-width:5;stroke-linecap:butt;stroke-linejoin:round;stroke-miterlimit:4;stroke-dasharray:none;stroke-opacity:1" />
  <path
     inkscape:connector-curvature="0"
     id="path1675"
     d="m 822.97342,659.05624 -45.6171,-26.33697 V 275.91374 l 263.36268,152.07013 -45.60818,26.3435 -172.1362,-99.37411 v 304.11383"
     style="fill:#031d3e;fill-rule:evenodd;stroke:#000000;stroke-width:5;stroke-linecap:butt;stroke-linejoin:round;stroke-miterlimit:4;stroke-dasharray:none;stroke-opacity:1;fill-opacity:1" />
  <path
     inkscape:connector-curvature="0"
     id="path1677"
     d="m 777.35632,275.91374 45.6173,-26.32791 308.98738,178.40271 -263.37038,152.05693 -0.4838,-52.39465 172.60488,-99.65346 z"
     style="fill:#f79f70;fill-opacity:1;fill-rule:evenodd;stroke:#000000;stroke-width:5;stroke-linecap:butt;stroke-linejoin:round;stroke-miterlimit:4;stroke-dasharray:none;stroke-opacity:1" />
  <path
     style="fill:#038995;fill-opacity:1;fill-rule:evenodd;stroke:#000000;stroke-width:5;stroke-linecap:butt;stroke-linejoin:round;stroke-miterlimit:4;stroke-dasharray:none;stroke-opacity:1"
     d="m 1177.5626,863.79607 -45.617,26.33696 -309.00258,-178.40272 45.603,-26.31135 217.78248,-125.71923 v 52.42294 l -172.13618,99.61647 z"
     id="path1681"
     inkscape:connector-curvature="0"
     sodipodi:nodetypes="cccccccc" />
  <path
     style="fill:#031d3e;fill-rule:evenodd;stroke:#000000;stroke-width:5;stroke-linecap:butt;stroke-linejoin:round;stroke-miterlimit:4;stroke-dasharray:none;stroke-opacity:1;fill-opacity:1"
     d="m 822.95822,711.73907 -10e-5,-52.674 309.00268,-178.40279 -0.015,304.11389 -45.6182,-26.32618 -0.01,-198.76136 -263.37028,152.0569"
     id="path1683"
     inkscape:connector-curvature="0" />
  <path
     style="fill:#f79f70;fill-opacity:1;fill-rule:evenodd;stroke:#000000;stroke-width:5;stroke-linecap:butt;stroke-linejoin:round;stroke-miterlimit:4;stroke-dasharray:none;stroke-opacity:1"
     d="m 1131.9608,480.66228 45.6092,26.34176 -0.01,356.79229 -263.37038,-152.05693 45.1332,-26.61632 172.60488,99.65346 z"
     id="path1685"
     inkscape:connector-curvature="0" />
  <path
     sodipodi:nodetypes="cccccccc"
     inkscape:connector-curvature="0"
     id="path1689"
     d="m 822.94292,1121.1923 -45.617,-26.337 V 738.04981 l 45.5878,26.33767 217.76728,125.74555 -45.39958,26.21143 -172.3385,-99.26604 z"
     style="fill:#038995;fill-opacity:1;fill-rule:evenodd;stroke:#000000;stroke-width:5;stroke-linecap:butt;stroke-linejoin:round;stroke-miterlimit:4;stroke-dasharray:none;stroke-opacity:1" />
  <path
     inkscape:connector-curvature="0"
     id="path1691"
     d="m 777.32592,738.06732 45.617,-26.33703 309.00268,178.40274 -263.37798,152.04377 -0.01,-52.66974 172.12858,-99.3872 -263.37028,-152.05693"
     style="fill:#031d3e;fill-rule:evenodd;stroke:#000000;stroke-width:5;stroke-linecap:butt;stroke-linejoin:round;stroke-miterlimit:4;stroke-dasharray:none;stroke-opacity:1;fill-opacity:1" />
  <path
     inkscape:connector-curvature="0"
     id="path1693"
     d="m 1131.9456,890.13303 -0.01,52.66963 -308.99498,178.38964 V 817.07842 l 45.617,25.77833 v 199.30695 z"
     style="fill:#f79f70;fill-opacity:1;fill-rule:evenodd;stroke:#000000;stroke-width:5;stroke-linecap:butt;stroke-linejoin:round;stroke-miterlimit:4;stroke-dasharray:none;stroke-opacity:1" />
  <path
     style="fill:#038995;fill-opacity:1;fill-rule:evenodd;stroke:#000000;stroke-width:5;stroke-linecap:butt;stroke-linejoin:round;stroke-miterlimit:4;stroke-dasharray:none;stroke-opacity:1"
     d="m 422.7214,942.78066 5e-5,-52.67396 309.00257,-178.40271 -0.015,52.64902 -0.015,251.46479 -45.3996,-26.21144 -0.2023,-198.88259 z"
     id="path1697"
     inkscape:connector-curvature="0"
     sodipodi:nodetypes="cccccccc" />
  <path
     style="fill:#031d3e;fill-rule:evenodd;stroke:#000000;stroke-width:5;stroke-linecap:butt;stroke-linejoin:round;stroke-miterlimit:4;stroke-dasharray:none;stroke-opacity:1;fill-opacity:1"
     d="m 731.70882,711.71274 45.6171,26.33697 v 356.80559 l -263.36275,-152.07024 45.60829,-26.3435 172.13616,99.37424 V 711.70189"
     id="path1699"
     inkscape:connector-curvature="0" />
  <path
     style="fill:#f79f70;fill-opacity:1;fill-rule:evenodd;stroke:#000000;stroke-width:5;stroke-linecap:butt;stroke-linejoin:round;stroke-miterlimit:4;stroke-dasharray:none;stroke-opacity:1"
     d="m 777.32592,1094.8553 -45.6173,26.3279 -308.98737,-178.40274 263.37037,-152.05695 0.4838,52.39465 -172.60488,99.6535 z"
     id="path1701"
     inkscape:connector-curvature="0" />
  <path
     sodipodi:nodetypes="cccccccc"
     inkscape:connector-curvature="0"
     id="path1705"
     d="m 377.11952,506.97296 45.61704,-26.33696 309.00256,178.40272 -45.603,26.31135 -217.78246,125.71923 -10e-6,-52.42294 172.13617,-99.61647 z"
     style="fill:#038995;fill-opacity:1;fill-rule:evenodd;stroke:#000000;stroke-width:5;stroke-linecap:butt;stroke-linejoin:round;stroke-miterlimit:4;stroke-dasharray:none;stroke-opacity:1" />
  <path
     inkscape:connector-curvature="0"
     id="path1707"
     d="m 731.72392,659.02996 10e-5,52.674 -309.00266,178.40279 0.0152,-304.11389 45.61828,26.32618 0.008,198.76136 263.37028,-152.0569"
     style="fill:#031d3e;fill-rule:evenodd;stroke:#000000;stroke-width:5;stroke-linecap:butt;stroke-linejoin:round;stroke-miterlimit:4;stroke-dasharray:none;stroke-opacity:1;fill-opacity:1" />
  <path
     inkscape:connector-curvature="0"
     id="path1709"
     d="m 422.72136,890.10675 -45.60927,-26.34176 0.008,-356.79229 263.37033,152.05693 -45.13319,26.61632 -172.60486,-99.65346 z"
     style="fill:#f79f70;fill-opacity:1;fill-rule:evenodd;stroke:#000000;stroke-width:5;stroke-linecap:butt;stroke-linejoin:round;stroke-miterlimit:4;stroke-dasharray:none;stroke-opacity:1" />
  <path
     style="fill:#038995;fill-opacity:1;fill-rule:evenodd;stroke:#000000;stroke-width:5;stroke-linecap:butt;stroke-linejoin:round;stroke-miterlimit:4;stroke-dasharray:none;stroke-opacity:1"
     d="m 1193.5783,387.65108 -45.617,26.33696 -309.00261,-178.40271 45.60299,-26.31136 217.78252,-125.719224 0,52.422934 -172.13622,99.61647 z"
     id="path1813"
     inkscape:connector-curvature="0"
     sodipodi:nodetypes="cccccccc" />
  <path
     style="fill:#031d3e;fill-rule:evenodd;stroke:#000000;stroke-width:5;stroke-linecap:butt;stroke-linejoin:round;stroke-miterlimit:4;stroke-dasharray:none;stroke-opacity:1;fill-opacity:1"
     d="m 838.97386,235.59408 -4e-5,-52.67399 309.00268,-178.4027969 -0.015,304.1138969 -45.6182,-26.32618 -0.01,-198.761369 -263.37035,152.056909"
     id="path1815"
     inkscape:connector-curvature="0" />
  <path
     style="fill:#f79f70;fill-opacity:1;fill-rule:evenodd;stroke:#000000;stroke-width:5;stroke-linecap:butt;stroke-linejoin:round;stroke-miterlimit:4;stroke-dasharray:none;stroke-opacity:1"
     d="m 1147.9765,4.5172931 45.6092,26.3417629 -0.01,356.792284 -263.37037,-152.05693 45.13318,-26.61632 172.60489,99.65346 z"
     id="path1817"
     inkscape:connector-curvature="0" />
  <path
     sodipodi:nodetypes="cccccccc"
     inkscape:connector-curvature="0"
     id="path1821"
     d="m 1243.1797,890.1331 -45.617,-26.33704 V 506.99063 l 45.5878,26.33767 217.7673,125.74555 -45.3996,26.21147 -172.3385,-99.26608 z"
     style="fill:#038995;fill-opacity:1;fill-rule:evenodd;stroke:#000000;stroke-width:5;stroke-linecap:butt;stroke-linejoin:round;stroke-miterlimit:4;stroke-dasharray:none;stroke-opacity:1" />
  <path
     inkscape:connector-curvature="0"
     id="path1823"
     d="m 1197.5627,507.00814 45.617,-26.33703 309.0027,178.40274 -263.378,152.04376 -0.01,-52.66968 172.1286,-99.38725 -263.3703,-152.05693"
     style="fill:#031d3e;fill-rule:evenodd;stroke:#000000;stroke-width:5;stroke-linecap:butt;stroke-linejoin:round;stroke-miterlimit:4;stroke-dasharray:none;stroke-opacity:1;fill-opacity:1" />
  <path
     inkscape:connector-curvature="0"
     id="path1825"
     d="m 1552.1824,659.07385 -0.01,52.66967 -308.995,178.38958 V 586.01924 l 45.617,25.77833 v 199.30692 z"
     style="fill:#f79f70;fill-opacity:1;fill-rule:evenodd;stroke:#000000;stroke-width:5;stroke-linecap:butt;stroke-linejoin:round;stroke-miterlimit:4;stroke-dasharray:none;stroke-opacity:1" />
  <path
     style="fill:#038995;fill-opacity:1;fill-rule:evenodd;stroke:#000000;stroke-width:5;stroke-linecap:butt;stroke-linejoin:round;stroke-miterlimit:4;stroke-dasharray:none;stroke-opacity:1"
     d="m 836.93542,1187.8797 10e-5,-52.674 309.00248,-178.40274 -0.015,52.64904 -0.015,251.4648 -45.3996,-26.2115 -0.2023,-198.8825 z"
     id="path1829"
     inkscape:connector-curvature="0"
     sodipodi:nodetypes="cccccccc" />
  <path
     style="fill:#031d3e;fill-rule:evenodd;stroke:#000000;stroke-width:5;stroke-linecap:butt;stroke-linejoin:round;stroke-miterlimit:4;stroke-dasharray:none;stroke-opacity:1;fill-opacity:1"
     d="m 1147.9229,958.81176 45.617,26.3369 v 356.80564 l -263.36268,-152.0702 45.6083,-26.3435 172.13618,99.3741 V 958.80086"
     id="path1831"
     inkscape:connector-curvature="0" />
  <path
     style="fill:#f79f70;fill-opacity:1;fill-rule:evenodd;stroke:#000000;stroke-width:5;stroke-linecap:butt;stroke-linejoin:round;stroke-miterlimit:4;stroke-dasharray:none;stroke-opacity:1"
     d="m 1191.5399,1339.9543 -45.6172,26.3279 -308.98738,-178.4027 263.37028,-152.057 0.4838,52.3947 -172.60478,99.6534 z"
     id="path1833"
     inkscape:connector-curvature="0" />
  <path
     sodipodi:nodetypes="cccccccc"
     inkscape:connector-curvature="0"
     id="path1837"
     d="m 361.10423,985.11826 45.61705,-26.337 309.00254,178.40274 -45.603,26.3114 -217.78245,125.7192 v -52.4229 l 172.13619,-99.6165 z"
     style="fill:#038995;fill-opacity:1;fill-rule:evenodd;stroke:#000000;stroke-width:5;stroke-linecap:butt;stroke-linejoin:round;stroke-miterlimit:4;stroke-dasharray:none;stroke-opacity:1" />
  <path
     inkscape:connector-curvature="0"
     id="path1839"
     d="m 715.70872,1137.1753 v 52.674 l -309.00264,178.4027 0.0152,-304.1138 45.61828,26.3261 0.008,198.7614 263.37036,-152.0569"
     style="fill:#031d3e;fill-rule:evenodd;stroke:#000000;stroke-width:5;stroke-linecap:butt;stroke-linejoin:round;stroke-miterlimit:4;stroke-dasharray:none;stroke-opacity:1;fill-opacity:1" />
  <path
     inkscape:connector-curvature="0"
     id="path1841"
     d="m 406.70608,1368.252 -45.60927,-26.3417 0.008,-356.79234 263.37033,152.05694 -45.13319,26.6163 -172.60485,-99.6534 z"
     style="fill:#f79f70;fill-opacity:1;fill-rule:evenodd;stroke:#000000;stroke-width:5;stroke-linecap:butt;stroke-linejoin:round;stroke-miterlimit:4;stroke-dasharray:none;stroke-opacity:1" />
  <path
     style="fill:#038995;fill-opacity:1;fill-rule:evenodd;stroke:#000000;stroke-width:5;stroke-linecap:butt;stroke-linejoin:round;stroke-miterlimit:4;stroke-dasharray:none;stroke-opacity:1"
     d="m 311.50267,480.63601 45.617,26.33704 v 356.80543 l -45.5878,-26.33767 -217.76728,-125.74555 45.39959,-26.21147 172.33849,99.26608 z"
     id="path1845"
     inkscape:connector-curvature="0"
     sodipodi:nodetypes="cccccccc" />
  <path
     style="fill:#031d3e;fill-rule:evenodd;stroke:#000000;stroke-width:5;stroke-linecap:butt;stroke-linejoin:round;stroke-miterlimit:4;stroke-dasharray:none;stroke-opacity:1;fill-opacity:1"
     d="M 357.11967,863.76097 311.50267,890.098 2.5,711.69526 265.87797,559.6515 l 0.01,52.66968 -172.1286,99.38725 263.3703,152.05693"
     id="path1847"
     inkscape:connector-curvature="0" />
  <path
     style="fill:#f79f70;fill-opacity:1;fill-rule:evenodd;stroke:#000000;stroke-width:5;stroke-linecap:butt;stroke-linejoin:round;stroke-miterlimit:4;stroke-dasharray:none;stroke-opacity:1"
     d="M 2.5,711.69526 2.508,659.02559 311.50297,480.63601 v 304.11386 l -45.617,-25.77833 V 559.66462 Z"
     id="path1849"
     inkscape:connector-curvature="0" />
  <path
     sodipodi:nodetypes="cccccccc"
     inkscape:connector-curvature="0"
     id="path1853"
     d="m 715.73952,180.9024 v 52.674 l -309.00259,178.40272 0.0152,-52.64903 0.0152,-251.46477 45.39959,26.21146 0.2023,198.88255 z"
     style="fill:#038995;fill-opacity:1;fill-rule:evenodd;stroke:#000000;stroke-width:5;stroke-linecap:butt;stroke-linejoin:round;stroke-miterlimit:4;stroke-dasharray:none;stroke-opacity:1" />
  <path
     inkscape:connector-curvature="0"
     id="path1855"
     d="M 406.7521,411.97036 361.13506,385.6334 361.13503,28.827863 624.49777,180.898 578.88949,207.2415 406.75331,107.86738 406.7533,411.98122"
     style="fill:#031d3e;fill-rule:evenodd;stroke:#000000;stroke-width:5;stroke-linecap:butt;stroke-linejoin:round;stroke-miterlimit:4;stroke-dasharray:none;stroke-opacity:1;fill-opacity:1" />
  <path
     inkscape:connector-curvature="0"
     id="path1857"
     d="M 361.13503,28.827863 406.7523,2.4999613 715.73972,180.90266 452.36937,332.95959 451.88556,280.56495 624.49041,180.91149 Z"
     style="fill:#f79f70;fill-opacity:1;fill-rule:evenodd;stroke:#000000;stroke-width:5;stroke-linecap:butt;stroke-linejoin:round;stroke-miterlimit:4;stroke-dasharray:none;stroke-opacity:1" />
</svg>
