<?xml version="1.0" encoding="UTF-8" standalone="no"?>
<!-- Created with matplotlib (https://matplotlib.org/) -->

<svg
   xmlns:dc="http://purl.org/dc/elements/1.1/"
   xmlns:cc="http://creativecommons.org/ns#"
   xmlns:rdf="http://www.w3.org/1999/02/22-rdf-syntax-ns#"
   xmlns:svg="http://www.w3.org/2000/svg"
   xmlns="http://www.w3.org/2000/svg"
   xmlns:sodipodi="http://sodipodi.sourceforge.net/DTD/sodipodi-0.dtd"
   xmlns:inkscape="http://www.inkscape.org/namespaces/inkscape"
   height="345.6pt"
   version="1.1"
   viewBox="0 0 460.8 345.6"
   width="460.8pt"
   id="svg106"
   sodipodi:docname="ten_star_color_d.svg"
   inkscape:version="0.92.3 (2405546, 2018-03-11)">
  <metadata
     id="metadata110">
    <rdf:RDF>
      <cc:Work
         rdf:about="">
        <dc:format>image/svg+xml</dc:format>
        <dc:type
           rdf:resource="http://purl.org/dc/dcmitype/StillImage" />
        <dc:title></dc:title>
      </cc:Work>
    </rdf:RDF>
  </metadata>
  <sodipodi:namedview
     pagecolor="#ffffff"
     bordercolor="#666666"
     borderopacity="1"
     objecttolerance="10"
     gridtolerance="10"
     guidetolerance="10"
     inkscape:pageopacity="0"
     inkscape:pageshadow="2"
     inkscape:window-width="1853"
     inkscape:window-height="1016"
     id="namedview108"
     showgrid="false"
     inkscape:zoom="1.4142136"
     inkscape:cx="485.21406"
     inkscape:cy="213.63487"
     inkscape:window-x="67"
     inkscape:window-y="27"
     inkscape:window-maximized="1"
     inkscape:current-layer="svg106" />
  <defs
     id="defs4">
    <style
       type="text/css"
       id="style2">
*{stroke-linecap:butt;stroke-linejoin:round;}
  </style>
  </defs>
  <defs
     id="defs104">
    <clipPath
       id="p87b7d6959b">
      <rect
         height="266.112"
         width="266.112"
         x="103.104"
         y="41.472"
         id="rect101" />
    </clipPath>
  </defs>
  <path
     style="opacity:1;fill:#ff8a00;fill-opacity:1;stroke:none;stroke-width:0.14173229;stroke-linecap:butt;stroke-linejoin:round;stroke-miterlimit:4;stroke-dasharray:none;stroke-dashoffset:0;stroke-opacity:1"
     d="m 216.20708,96.33626 c -0.79129,0.290624 -0.39118,1.33096 -0.52604,1.963356 -0.11853,12.452444 -0.0381,24.906014 -0.0623,37.358914 0.81573,1.49987 2.0016,2.81121 2.96069,4.23806 3.8145,5.19631 7.51569,10.48113 11.47193,15.57028 0.68251,0.40792 1.4749,-0.30826 2.18674,-0.40128 7.01968,-2.28519 14.04351,-4.5654 21.06546,-6.84701 1.17377,-1.23999 2.05391,-2.77332 3.11395,-4.12692 3.74002,-5.20906 7.60232,-10.33806 11.21173,-15.6365 0.0356,-0.84243 -0.81979,-1.40908 -1.18175,-2.11824 -4.29624,-5.95839 -8.56252,-11.9438 -13.01063,-17.78875 -2.08219,-0.89285 -4.3059,-1.47946 -6.44737,-2.23786 -10.21725,-3.35123 -20.44684,-6.690913 -30.68366,-9.965915 l -0.0928,-0.0089 z"
     id="path1370"
     inkscape:connector-curvature="0"
     transform="scale(0.75000001)" />
  <path
     style="opacity:1;fill:#ff8a00;fill-opacity:1;stroke:none;stroke-width:0.14173229;stroke-linecap:butt;stroke-linejoin:round;stroke-miterlimit:4;stroke-dasharray:none;stroke-dashoffset:0;stroke-opacity:1"
     d="m 173.51763,174.28987 c -6.16678,2.02999 -12.3624,3.98164 -18.48902,6.12866 -0.69848,0.59266 0.29418,1.29577 0.58437,1.85036 7.27372,10.08038 14.55223,20.15865 21.93663,30.15795 1.30322,0.72328 2.81922,1.03507 4.21191,1.57226 6.28982,2.09089 12.59405,4.14006 18.91358,6.13892 0.7913,-7.9e-4 1.01428,-0.99482 1.51788,-1.4576 4.45659,-6.00275 8.80829,-12.08238 13.20551,-18.12858 0.22087,-1.69291 0.0327,-3.45051 0.0952,-5.16846 0,-6.39909 0,-12.79818 0,-19.19727 -0.26073,-0.78656 -1.33959,-0.64131 -1.98061,-0.98664 -7.08514,-2.28837 -14.16296,-4.59923 -21.24375,-6.90105 -1.67866,0.31229 -3.29232,1.035 -4.94579,1.50626 -4.60198,1.49507 -9.20395,2.99013 -13.80592,4.48519 z"
     id="path1374"
     inkscape:connector-curvature="0"
     transform="scale(0.75000001)" />
  <path
     style="opacity:1;fill:#ff8a00;fill-opacity:1;stroke:none;stroke-width:0.14173229;stroke-linecap:butt;stroke-linejoin:round;stroke-miterlimit:4;stroke-dasharray:none;stroke-dashoffset:0;stroke-opacity:1"
     d="m 200.7166,245.23665 c -7.58983,2.51233 -15.24175,4.84553 -22.77455,7.52531 -0.91924,0.35919 -1.20958,1.47711 -1.86269,2.14834 -7.12012,9.80404 -14.24454,19.60515 -21.36691,29.40765 -0.35092,0.93381 0.98986,0.91572 1.55546,1.19708 11.87634,3.86828 23.75563,7.72776 35.63375,11.59076 1.64241,-0.268 3.20963,-0.98627 4.81984,-1.43846 6.12326,-1.98491 12.24311,-3.98013 18.36449,-5.97096 0.67419,-0.49688 0.20954,-1.50255 0.34986,-2.22412 0.0198,-7.4401 0.0395,-14.88021 0.0591,-22.32032 -0.81451,-1.50076 -2.00198,-2.8118 -2.961,-4.23906 -3.75265,-5.16492 -7.50546,-10.32974 -11.25824,-15.49458 -0.18358,-0.12668 -0.32103,-0.24934 -0.55908,-0.18164 z"
     id="path1376"
     inkscape:connector-curvature="0"
     transform="scale(0.75000001)" />
  <path
     style="opacity:1;fill:#ff8a00;fill-opacity:1;stroke:none;stroke-width:0.14173229;stroke-linecap:butt;stroke-linejoin:round;stroke-miterlimit:4;stroke-dasharray:none;stroke-dashoffset:0;stroke-opacity:1"
     d="m 230.15752,309.89607 c -0.82752,0.60368 -1.27602,1.62914 -1.94779,2.40101 -4.19225,5.69477 -8.3306,11.42899 -12.49264,17.14587 -0.22148,1.69297 -0.0331,3.45084 -0.0958,5.16894 0.0293,11.31722 -0.0761,22.63665 0.10315,33.9524 0.24282,0.89995 1.31031,0.18729 1.88743,0.0738 11.89705,-3.82684 23.77721,-7.70612 35.66458,-11.56302 1.1743,-1.23939 2.05508,-2.77233 3.1157,-4.12542 3.75831,-5.18464 7.5429,-10.35052 11.26882,-15.55842 0.19188,-0.8399 -0.78181,-1.40569 -1.11897,-2.11115 -4.31143,-5.96484 -8.62134,-11.93088 -12.95916,-17.8764 -1.22685,-0.65023 -2.65698,-0.90455 -3.96047,-1.40378 -6.38936,-2.04617 -12.734,-4.24723 -19.18186,-6.10208 -0.0932,-0.0169 -0.18958,-0.0263 -0.28296,-0.002 z"
     id="path1378"
     inkscape:connector-curvature="0"
     transform="scale(0.75000001)" />
  <path
     style="opacity:1;fill:#ff8a00;fill-opacity:1;stroke:none;stroke-width:0.14173229;stroke-linecap:butt;stroke-linejoin:round;stroke-miterlimit:4;stroke-dasharray:none;stroke-dashoffset:0;stroke-opacity:1"
     d="m 314.81694,337.31526 c -7.67423,2.33551 -15.27737,4.90221 -22.91528,7.3545 -0.67456,0.49668 -0.20976,1.50271 -0.35012,2.22435 -0.0198,7.4314 -0.0395,14.8628 -0.0591,22.2942 0.81444,1.50081 2.00088,2.81243 2.95944,4.23995 6.64447,9.13061 13.24574,18.29446 19.92947,27.39506 0.73181,0.49896 1.23384,-0.55946 1.64966,-0.99683 6.55393,-8.75547 12.89515,-17.6684 19.34781,-26.49865 0.93072,-1.3852 2.08092,-2.65935 2.86606,-4.11927 -0.0211,-8.02661 -0.0423,-16.05322 -0.0637,-24.07983 -0.26573,-0.79426 -1.36569,-0.6606 -2.00932,-1.01564 -7.05027,-2.26887 -14.06983,-4.63996 -21.15352,-6.80101 -0.066,0.0157 -0.13553,-0.0138 -0.20142,0.003 z"
     id="path1380"
     inkscape:connector-curvature="0"
     transform="scale(0.75000001)" />
  <path
     style="opacity:1;fill:#ff8a00;fill-opacity:1;stroke:none;stroke-width:0.14173229;stroke-linecap:butt;stroke-linejoin:round;stroke-miterlimit:4;stroke-dasharray:none;stroke-dashoffset:0;stroke-opacity:1"
     d="m 399.32256,309.8177 c -7.52369,2.38894 -15.05318,4.77268 -22.50635,7.37549 -1.06319,0.2841 -1.39652,1.50904 -2.09945,2.23298 -4.21951,5.80329 -8.47275,11.58571 -12.58707,17.46331 -0.10333,0.83121 0.79601,1.38183 1.1296,2.0804 4.26847,5.93695 8.52311,11.88623 12.90213,17.74187 1.28807,0.7312 2.79769,1.03481 4.17949,1.57053 10.97304,3.64306 21.97244,7.20743 32.98262,10.73635 0.93346,0.0572 0.64854,-1.11142 0.72579,-1.69639 0.13316,-12.53613 0.0416,-25.07376 0.0694,-37.61049 -0.81494,-1.50023 -1.99873,-2.81286 -2.9565,-4.24044 -3.78666,-5.17698 -7.47808,-10.42818 -11.37822,-15.51957 -0.11103,-0.13251 -0.31281,-0.0925 -0.46142,-0.13404 z"
     id="path1382"
     inkscape:connector-curvature="0"
     transform="scale(0.75000001)" />
  <path
     style="opacity:1;fill:#ff8a00;fill-opacity:1;stroke:none;stroke-width:0.14173229;stroke-linecap:butt;stroke-linejoin:round;stroke-miterlimit:4;stroke-dasharray:none;stroke-dashoffset:0;stroke-opacity:1"
     d="m 428.75249,245.30306 c -1.2745,1.39619 -2.28902,3.04296 -3.45547,4.53955 -3.66847,5.00536 -7.3061,10.03315 -10.95884,15.05005 -0.21922,1.6517 -0.0244,3.36829 -0.0832,5.04515 0.0169,6.42359 0.0341,12.84717 0.0512,19.27076 0.2657,0.79461 1.36602,0.66019 2.00989,1.01489 7.06987,2.2959 14.13973,4.5918 21.20959,6.8877 1.598,-0.29888 3.13435,-0.9892 4.70946,-1.43887 10.83988,-3.53019 21.69009,-7.02878 32.52174,-10.58383 0.79658,-0.56418 -0.22886,-1.29676 -0.52548,-1.85583 -7.34686,-10.16425 -14.69499,-20.32912 -22.15518,-30.41004 -1.90971,-0.81594 -3.9662,-1.32573 -5.93196,-2.02274 -5.67609,-1.84806 -11.34787,-3.71002 -17.03411,-5.52658 -0.11922,0.01 -0.23844,0.0199 -0.35766,0.0298 z"
     id="path1384"
     inkscape:connector-curvature="0"
     transform="scale(0.75000001)" />
  <path
     style="opacity:1;fill:#ff8a00;fill-opacity:1;stroke:none;stroke-width:0.14173229;stroke-linecap:butt;stroke-linejoin:round;stroke-miterlimit:4;stroke-dasharray:none;stroke-dashoffset:0;stroke-opacity:1"
     d="m 426.05327,172.02205 c -3.8464,1.28112 -7.75115,2.45484 -11.5612,3.80285 -0.52718,0.57731 -0.12048,1.53834 -0.24803,2.27186 0.001,7.38004 0.003,14.76009 0.004,22.14013 0.81597,1.49972 2.00238,2.81066 2.96181,4.23726 3.78258,5.18251 7.52187,10.39797 11.35436,15.54326 0.75677,0.37252 1.56533,-0.33626 2.33812,-0.44731 6.98205,-2.27808 13.99245,-4.49167 20.94365,-6.85053 1.9248,-2.32826 3.63217,-4.85456 5.45844,-7.26904 5.90882,-8.09845 11.87975,-16.15471 17.65383,-24.34938 0.30579,-0.86912 -0.8725,-0.92138 -1.40357,-1.17993 -11.90207,-3.89648 -23.82053,-7.74359 -35.72827,-11.62305 -1.67856,0.31239 -3.29219,1.03487 -4.9456,1.50608 -2.27587,0.73927 -4.55173,1.47853 -6.82759,2.2178 z"
     id="path1386"
     inkscape:connector-curvature="0"
     transform="scale(0.75000001)" />
  <path
     style="opacity:1;fill:#ff8a00;fill-opacity:1;stroke:none;stroke-width:0.14173229;stroke-linecap:butt;stroke-linejoin:round;stroke-miterlimit:4;stroke-dasharray:none;stroke-dashoffset:0;stroke-opacity:1"
     d="m 413.40166,96.346758 c -12.30313,3.993972 -24.60468,8.009562 -36.91065,11.983152 -1.17592,1.23823 -2.05593,2.77282 -3.11719,4.12589 -3.76514,5.18144 -7.53014,10.36299 -11.29516,15.54452 -0.25426,0.79909 0.71648,1.33795 1.02878,2.00356 4.36633,6.00832 8.73262,12.01666 13.09891,18.02501 1.54153,0.73406 3.27147,1.09849 4.88597,1.6894 6.00277,1.90937 11.9554,3.98722 18.00807,5.73369 0.93487,0.36652 1.27011,-0.83966 1.77208,-1.36462 4.39918,-6.01973 8.76902,-12.06089 13.1515,-18.0929 0.21974,-1.69318 0.0274,-3.45115 0.0876,-5.16942 -0.0183,-11.33448 -0.0368,-22.66895 -0.0553,-34.003429 -0.0508,-0.320801 -0.3234,-0.554622 -0.65454,-0.474853 z"
     id="path1388"
     inkscape:connector-curvature="0"
     transform="scale(0.75000001)" />
  <path
     style="opacity:1;fill:#ff8a00;fill-opacity:1;stroke:none;stroke-width:0.14173229;stroke-linecap:butt;stroke-linejoin:round;stroke-miterlimit:4;stroke-dasharray:none;stroke-dashoffset:0;stroke-opacity:1"
     d="m 314.60674,64.425615 c -3.14908,4.062771 -6.10818,8.28331 -9.16187,12.422869 -4.62185,6.356248 -9.2368,12.717668 -13.85571,19.076154 -0.22142,1.692863 -0.0328,3.450684 -0.0955,5.168702 0,6.38257 0,12.76514 0,19.1477 0.26414,0.79541 1.36516,0.66265 2.00859,1.01836 7.05131,2.2948 14.09382,4.61717 21.15523,6.88057 1.31336,-0.1684 2.56119,-0.78515 3.84802,-1.12171 6.47015,-2.07758 12.92885,-4.19057 19.3927,-6.28771 0.67519,-0.49715 0.20684,-1.50355 0.34546,-2.22559 0,-7.44238 0,-14.88476 0,-22.327148 -0.81585,-1.49979 -2.00201,-2.810914 -2.96128,-4.237634 -6.66784,-9.147271 -13.27597,-18.338683 -20.01016,-27.436926 -0.22476,-0.167722 -0.4061,-0.187565 -0.66552,-0.07764 z"
     id="path1390"
     inkscape:connector-curvature="0"
     transform="scale(0.75000001)" />
  <path
     style="opacity:1;fill:#000000;fill-opacity:1;stroke:none;stroke-width:0.28346458;stroke-linecap:butt;stroke-linejoin:round;stroke-miterlimit:4;stroke-dasharray:none;stroke-dashoffset:0;stroke-opacity:1"
     d="m 229.80966,181.02201 c -4.64997,6.45295 -9.44693,12.82662 -13.93311,19.38281 -0.5772,4.17039 -0.14348,8.43212 -0.25595,12.63574 0.0921,3.92671 -0.0966,7.9159 0.16835,11.80413 2.80416,1.30825 6.05439,2.03897 9.02966,3.12528 4.736,1.47325 9.42848,3.24299 14.19662,4.52079 12.31056,-3.87812 24.59565,-7.85145 36.82421,-11.97852 0.76239,-0.94138 -0.77743,-1.84499 -1.09423,-2.70849 -6.93682,-9.91685 -14.14163,-19.64236 -21.22998,-29.45069 -7.2038,-2.55766 -14.57257,-4.81697 -21.87732,-7.14479 -0.5935,-0.0904 -1.27706,-0.646 -1.82825,-0.18626 z"
     id="path1392"
     inkscape:connector-curvature="0"
     transform="scale(0.75000001)" />
  <path
     style="opacity:1;fill:#000000;fill-opacity:1;stroke:none;stroke-width:0.28346458;stroke-linecap:butt;stroke-linejoin:round;stroke-miterlimit:4;stroke-dasharray:none;stroke-dashoffset:0;stroke-opacity:1"
     d="m 276.49814,140.86625 c -7.64158,2.54827 -15.39957,4.86781 -22.96827,7.55957 -4.64124,6.55084 -9.67114,12.84873 -13.95556,19.64062 -0.13974,1.20951 1.33571,2.05686 1.80008,3.11202 4.12015,5.59745 8.08404,11.35719 12.33127,16.83134 12.2656,3.97323 24.50169,8.03878 36.77636,11.98779 1.2238,-0.16203 0.48353,-1.89802 0.7257,-2.74255 0.16742,-12.16655 0.078,-24.33477 0.10145,-36.50207 -4.44342,-6.48157 -9.23911,-12.78699 -13.84668,-19.18018 -0.24538,-0.30101 -0.49884,-0.80798 -0.96435,-0.70654 z"
     id="path1394"
     inkscape:connector-curvature="0"
     transform="scale(0.75000001)" />
  <path
     style="opacity:1;fill:#000000;fill-opacity:1;stroke:none;stroke-width:0.28346458;stroke-linecap:butt;stroke-linejoin:round;stroke-miterlimit:4;stroke-dasharray:none;stroke-dashoffset:0;stroke-opacity:1"
     d="m 314.81064,128.54642 c -7.69323,2.23782 -15.26873,4.88332 -22.90625,7.30957 -0.78162,1.21969 -0.13277,3.02624 -0.34522,4.47559 0.0634,6.75363 -0.1268,13.5473 0.0952,20.27588 7.60624,10.47391 15.2122,20.94803 22.81787,31.42236 1.40747,0.42116 1.88491,-2.04743 2.86719,-2.83093 6.9608,-9.66194 14.10692,-19.2294 20.95141,-28.95073 -0.0203,-8.03635 0.14383,-16.10221 -0.12866,-24.13338 -2.20603,-1.17784 -4.86627,-1.59768 -7.22998,-2.51709 -5.37099,-1.67449 -10.68952,-3.62438 -16.12158,-5.05127 z"
     id="path1396"
     inkscape:connector-curvature="0"
     transform="scale(0.75000001)" />
  <path
     style="opacity:1;fill:#000000;fill-opacity:1;stroke:none;stroke-width:0.28346458;stroke-linecap:butt;stroke-linejoin:round;stroke-miterlimit:4;stroke-dasharray:none;stroke-dashoffset:0;stroke-opacity:1"
     d="m 352.8121,140.8975 c -4.78252,6.52069 -9.61939,13.06426 -14.23487,19.68945 -0.0421,12.96988 -0.006,25.95213 -0.0181,38.92676 0.70618,1.14078 2.33236,-0.33006 3.40179,-0.37418 11.46252,-3.71354 22.94118,-7.39721 34.31891,-11.35824 4.7126,-6.42582 9.49296,-12.8417 13.98047,-19.43311 -0.26046,-1.46809 -1.66994,-2.55986 -2.37153,-3.86748 -3.90671,-5.40674 -7.7285,-10.924 -11.79985,-16.18037 -7.6218,-2.48288 -15.24394,-4.96492 -22.86524,-7.44922 l -0.24843,0.028 z"
     id="path1398"
     inkscape:connector-curvature="0"
     transform="scale(0.75000001)" />
  <path
     style="opacity:1;fill:#000000;fill-opacity:1;stroke:none;stroke-width:0.28346458;stroke-linecap:butt;stroke-linejoin:round;stroke-miterlimit:4;stroke-dasharray:none;stroke-dashoffset:0;stroke-opacity:1"
     d="m 399.04696,180.86039 c -7.59818,2.48776 -15.28699,4.82555 -22.7998,7.49512 -7.50494,10.43986 -15.23392,20.72854 -22.52344,31.31738 0.0799,1.22583 1.89011,1.05302 2.72603,1.60015 11.35262,3.89173 22.77747,7.65005 34.21489,11.23725 7.7109,-2.35575 15.36016,-4.91297 23.04004,-7.36914 0.78363,-1.21856 0.13435,-3.02638 0.34765,-4.47559 -0.0617,-6.78327 0.13275,-13.60704 -0.0884,-20.36523 -4.80484,-6.43478 -9.2528,-13.16273 -14.40528,-19.32422 -0.13894,-0.11626 -0.33391,-0.17235 -0.51172,-0.11572 z"
     id="path1400"
     inkscape:connector-curvature="0"
     transform="scale(0.75000001)" />
  <path
     style="opacity:1;fill:#000000;fill-opacity:1;stroke:none;stroke-width:0.28346458;stroke-linecap:butt;stroke-linejoin:round;stroke-miterlimit:4;stroke-dasharray:none;stroke-dashoffset:0;stroke-opacity:1"
     d="m 383.94491,235.05765 c -10.09458,3.28135 -20.18918,6.56267 -30.28369,9.84424 -0.88441,1.00142 1.06756,2.02607 1.4043,3.00244 7.09693,9.68883 14.05558,19.50111 21.22803,29.12403 7.60022,2.64987 15.24822,5.23055 22.98632,7.44091 1.34491,-0.67691 1.97381,-2.36764 3.0194,-3.42673 3.96218,-5.33357 8.00341,-10.66108 11.73842,-16.12893 -0.0345,-8.05827 -0.069,-16.11654 -0.10352,-24.1748 -0.92113,-1.11825 -2.83624,-1.06124 -4.14902,-1.71098 -6.39667,-2.01339 -12.75273,-4.28294 -19.17471,-6.13668 -2.22184,0.72217 -4.44368,1.44434 -6.66553,2.1665 z"
     id="path1402"
     inkscape:connector-curvature="0"
     transform="scale(0.75000001)" />
  <path
     style="opacity:1;fill:#000000;fill-opacity:1;stroke:none;stroke-width:0.28346458;stroke-linecap:butt;stroke-linejoin:round;stroke-miterlimit:4;stroke-dasharray:none;stroke-dashoffset:0;stroke-opacity:1"
     d="m 338.80234,265.43656 c -0.57632,1.74221 -0.075,3.81297 -0.24317,5.6792 0.0516,11.30137 -0.10323,22.63552 0.0774,33.91643 4.55764,6.26773 9.05163,12.60522 13.72534,18.78962 1.01779,1.44577 2.75111,-0.14186 4.03845,-0.29946 6.60506,-2.21345 13.32876,-4.19182 19.86242,-6.54429 4.66602,-6.51822 9.55971,-12.88783 14.01709,-19.54736 -0.32889,-1.50831 -1.74485,-2.64113 -2.49588,-3.99009 -3.86761,-5.34022 -7.64741,-10.75623 -11.71505,-15.94399 -12.21488,-4.2157 -24.57587,-8.05926 -36.85498,-12.10645 l -0.24843,0.028 z"
     id="path1404"
     inkscape:connector-curvature="0"
     transform="scale(0.75000001)" />
  <path
     style="opacity:1;fill:#000000;fill-opacity:1;stroke:none;stroke-width:0.28346458;stroke-linecap:butt;stroke-linejoin:round;stroke-miterlimit:4;stroke-dasharray:none;stroke-dashoffset:0;stroke-opacity:1"
     d="m 314.54208,273.60209 c -2.29918,2.5698 -4.16265,5.61362 -6.29275,8.36166 -5.54555,7.69322 -11.25792,15.306 -16.67604,23.06622 -0.002,8.01987 0.0804,16.05266 0.11088,24.07749 0.92212,1.11706 2.83333,1.06693 4.1449,1.71915 6.34626,2.02509 12.65696,4.26298 19.01965,6.17098 7.67964,-2.42889 15.32707,-4.95997 22.99024,-7.44091 0.78294,-1.21893 0.14531,-3.02465 0.3635,-4.47311 -0.034,-6.73228 0.19124,-13.50477 -0.005,-20.21195 -7.46975,-10.12393 -14.64683,-20.47055 -22.36425,-30.40772 -0.35276,-0.34337 -0.70995,-0.98098 -1.29151,-0.86181 z"
     id="path1406"
     inkscape:connector-curvature="0"
     transform="scale(0.75000001)" />
  <path
     style="opacity:1;fill:#000000;fill-opacity:1;stroke:none;stroke-width:0.28346458;stroke-linecap:butt;stroke-linejoin:round;stroke-miterlimit:4;stroke-dasharray:none;stroke-dashoffset:0;stroke-opacity:1"
     d="m 290.65487,265.3765 c -12.30676,3.99169 -24.61003,7.99433 -36.91308,11.99756 -4.92176,6.3946 -9.54773,13.08474 -14.35596,19.59277 0.0832,1.44622 1.66943,2.5273 2.34839,3.82512 3.9762,5.37335 7.75469,10.92135 11.91187,16.1451 7.56628,2.73074 15.24076,5.19868 22.93945,7.52588 1.31781,-0.69839 1.89907,-2.39624 2.92822,-3.46642 3.94049,-5.42983 8.03004,-10.79958 11.78809,-16.33095 0.002,-12.93782 0.005,-25.87565 0.007,-38.81347 -0.0533,-0.34049 -0.32936,-0.52485 -0.6543,-0.47559 z"
     id="path1408"
     inkscape:connector-curvature="0"
     transform="scale(0.75000001)" />
  <path
     style="opacity:1;fill:#000000;fill-opacity:1;stroke:none;stroke-width:0.28346458;stroke-linecap:butt;stroke-linejoin:round;stroke-miterlimit:4;stroke-dasharray:none;stroke-dashoffset:0;stroke-opacity:1"
     d="m 233.20126,234.73685 c -5.80761,1.96217 -11.75716,3.67614 -17.4806,5.77786 -0.37707,2.98687 -0.0536,6.22425 -0.16149,9.3071 0.0583,4.9738 -0.11761,9.9831 0.0879,14.93457 4.70186,6.60754 9.33995,13.28137 14.39893,19.62012 1.34346,0.33997 2.7561,-0.74322 4.11181,-0.95508 6.35253,-2.09637 12.8026,-3.98787 19.0625,-6.31396 7.68608,-10.0493 15.06644,-20.33887 22.40235,-30.64795 0.54677,-0.49458 0.92691,-1.58551 -0.13623,-1.70703 -12.077,-4.02832 -24.20136,-7.91372 -36.3042,-11.86377 -2.01679,0.41826 -3.98857,1.26873 -5.98096,1.84814 z"
     id="path1410"
     inkscape:connector-curvature="0"
     transform="scale(0.75000001)" />
  <path
     style="opacity:1;fill:#ff8a00;fill-opacity:1;stroke:none;stroke-width:0.14173229;stroke-linecap:butt;stroke-linejoin:round;stroke-miterlimit:4;stroke-dasharray:none;stroke-dashoffset:0;stroke-opacity:1"
     d="m 290.66548,216.04018 c -4.32555,1.35551 -8.62801,2.78452 -12.94165,4.17773 -0.81649,0.52093 0.21252,1.25804 0.5072,1.79073 2.42827,3.28336 4.75477,6.65119 7.24866,9.88066 0.66911,0.59369 1.19523,-0.36023 1.52132,-0.83705 1.43367,-2.0047 2.94771,-3.97088 4.31706,-6.00963 0.11707,-2.72125 0.0569,-5.48148 0.004,-8.2168 0.0309,-0.41169 -0.16172,-0.85808 -0.65625,-0.78564 z"
     id="path1412"
     inkscape:connector-curvature="0"
     transform="scale(0.75000001)" />
  <path
     style="opacity:1;fill:#ff8a00;fill-opacity:1;stroke:none;stroke-width:0.14173229;stroke-linecap:butt;stroke-linejoin:round;stroke-miterlimit:4;stroke-dasharray:none;stroke-dashoffset:0;stroke-opacity:1"
     d="m 292.05415,200.81777 c -0.79138,0.37779 -0.4156,1.47679 -0.53822,2.17304 -0.003,3.99678 -0.0686,8.01541 0.0287,11.9983 0.39438,0.81864 1.39494,-0.0314 2.03619,-0.10474 2.23981,-0.75547 4.52761,-1.41695 6.73722,-2.23178 1.77111,-2.22458 3.36995,-4.62126 5.06915,-6.91637 0.34626,-0.93443 -0.99265,-0.91239 -1.55882,-1.19279 -3.88176,-1.23759 -7.74272,-2.56703 -11.63942,-3.74227 l -0.12406,0.0153 z"
     id="path1414"
     inkscape:connector-curvature="0"
     transform="scale(0.75000001)" />
  <path
     style="opacity:1;fill:#ff8a00;fill-opacity:1;stroke:none;stroke-width:0.14173229;stroke-linecap:butt;stroke-linejoin:round;stroke-miterlimit:4;stroke-dasharray:none;stroke-dashoffset:0;stroke-opacity:1"
     d="m 314.61348,193.53847 c -1.79869,2.11589 -3.33744,4.45955 -5.00323,6.68639 -1.03726,1.50547 -2.20581,2.93773 -3.12665,4.51454 0.0212,0.90271 1.27496,0.7591 1.87486,1.108 2.18524,0.66749 4.336,1.50876 6.55457,2.03662 2.74415,-0.73711 5.42487,-1.72083 8.1377,-2.57309 0.83219,-0.55123 -0.26578,-1.32201 -0.55959,-1.88139 -2.41186,-3.27249 -4.73198,-6.61691 -7.24558,-9.81197 -0.15998,-0.14058 -0.44546,-0.18495 -0.63208,-0.0791 z"
     id="path1416"
     inkscape:connector-curvature="0"
     transform="scale(0.75000001)" />
  <path
     style="opacity:1;fill:#ff8a00;fill-opacity:1;stroke:none;stroke-width:0.14173229;stroke-linecap:butt;stroke-linejoin:round;stroke-miterlimit:4;stroke-dasharray:none;stroke-dashoffset:0;stroke-opacity:1"
     d="m 337.6003,200.82631 c -4.31169,1.32554 -8.60695,2.70961 -12.88917,4.12818 -0.78979,0.48231 0.14977,1.26787 0.41382,1.77343 1.39488,1.9658 2.78269,3.95679 4.25863,5.8516 2.66382,1.01648 5.44003,1.81443 8.14689,2.74728 0.99734,0.0495 0.56926,-1.22269 0.66331,-1.8474 -4e-4,-4.0864 0.0842,-8.17573 0.004,-12.26051 -0.10618,-0.26691 -0.30754,-0.40826 -0.59716,-0.39258 z"
     id="path1418"
     inkscape:connector-curvature="0"
     transform="scale(0.75000001)" />
  <path
     style="opacity:1;fill:#ff8a00;fill-opacity:1;stroke:none;stroke-width:0.14173229;stroke-linecap:butt;stroke-linejoin:round;stroke-miterlimit:4;stroke-dasharray:none;stroke-dashoffset:0;stroke-opacity:1"
     d="m 338.74141,216.08168 c -0.5566,0.53742 -0.22578,1.45748 -0.34755,2.15542 -0.01,2.24145 -0.0643,4.49904 0.0195,6.73031 1.54053,2.32474 3.25653,4.56944 4.92721,6.81763 0.3379,0.6262 1.10277,0.22635 1.29929,-0.31469 2.56907,-3.51413 5.16983,-7.01067 7.64721,-10.58837 0.096,-0.95414 -1.21624,-0.82775 -1.81488,-1.17538 -3.78773,-1.23338 -7.57261,-2.47719 -11.37433,-3.66642 -0.11881,0.0138 -0.23763,0.0277 -0.35644,0.0415 z"
     id="path1420"
     inkscape:connector-curvature="0"
     transform="scale(0.75000001)" />
  <path
     style="opacity:1;fill:#ff8a00;fill-opacity:1;stroke:none;stroke-width:0.14173229;stroke-linecap:butt;stroke-linejoin:round;stroke-miterlimit:4;stroke-dasharray:none;stroke-dashoffset:0;stroke-opacity:1"
     d="m 343.54756,233.40981 c -1.79017,2.20481 -3.37927,4.5752 -5.07739,6.854 -0.219,1.67198 -0.0365,3.40771 -0.095,5.10498 0.0857,1.2315 -0.16535,2.5334 0.18776,3.72608 0.55444,0.67513 1.43523,-0.14333 2.09692,-0.2022 3.81315,-1.26233 7.68006,-2.42994 11.45476,-3.76569 0.64824,-0.60166 -0.40708,-1.27409 -0.67207,-1.84337 -2.39526,-3.29187 -4.73831,-6.62748 -7.24533,-9.8345 -0.16091,-0.15122 -0.47659,-0.15427 -0.64966,-0.0393 z"
     id="path1422"
     inkscape:connector-curvature="0"
     transform="scale(0.75000001)" />
  <path
     style="opacity:1;fill:#ff8a00;fill-opacity:1;stroke:none;stroke-width:0.14173229;stroke-linecap:butt;stroke-linejoin:round;stroke-miterlimit:4;stroke-dasharray:none;stroke-dashoffset:0;stroke-opacity:1"
     d="m 337.59614,250.07436 c -2.71763,0.90212 -5.48061,1.71743 -8.16498,2.68885 -1.76953,2.22012 -3.36088,4.6177 -5.06207,6.90587 -0.34403,0.90865 0.92481,0.89835 1.48798,1.16255 3.88636,1.25919 7.76279,2.5494 11.65607,3.78692 0.96624,0.0559 0.60016,-1.16562 0.69716,-1.7556 0.0651,-4.10391 0.0304,-8.20853 0.0394,-12.31276 -0.0504,-0.32072 -0.32249,-0.55466 -0.65357,-0.47583 z"
     id="path1424"
     inkscape:connector-curvature="0"
     transform="scale(0.75000001)" />
  <path
     style="opacity:1;fill:#ff8a00;fill-opacity:1;stroke:none;stroke-width:0.14173229;stroke-linecap:butt;stroke-linejoin:round;stroke-miterlimit:4;stroke-dasharray:none;stroke-dashoffset:0;stroke-opacity:1"
     d="m 314.75044,257.54067 c -2.72391,0.81778 -5.45626,1.68791 -8.1196,2.65025 -0.65423,0.6284 0.46137,1.31631 0.72851,1.90387 2.38727,3.249 4.68705,6.56654 7.17185,9.74153 0.81253,0.49459 1.15398,-0.72148 1.61584,-1.16495 2.40099,-3.29766 4.86443,-6.55848 7.16419,-9.92465 0.0643,-0.89271 -1.11041,-0.80679 -1.68867,-1.11783 -2.2572,-0.69589 -4.49013,-1.53014 -6.77812,-2.09454 l -0.0545,-5.2e-4 z"
     id="path1426"
     inkscape:connector-curvature="0"
     transform="scale(0.75000001)" />
  <path
     style="opacity:1;fill:#ff8a00;fill-opacity:1;stroke:none;stroke-width:0.14173229;stroke-linecap:butt;stroke-linejoin:round;stroke-miterlimit:4;stroke-dasharray:none;stroke-dashoffset:0;stroke-opacity:1"
     d="m 291.79121,250.08949 c -0.5908,0.58824 -0.16035,1.57084 -0.2915,2.32935 0.0507,3.8964 -0.1092,7.80306 0.1123,11.69336 0.19544,0.89447 1.18966,0.29838 1.73433,0.14581 3.9535,-1.31427 7.96503,-2.51565 11.88363,-3.89335 0.64908,-0.59883 -0.40217,-1.27183 -0.66909,-1.83768 -1.40434,-1.90565 -2.74113,-3.87964 -4.19456,-5.73732 -2.68686,-1.01038 -5.4768,-1.82723 -8.21695,-2.72287 -0.11939,0.008 -0.23877,0.0151 -0.35816,0.0227 z"
     id="path1428"
     inkscape:connector-curvature="0"
     transform="scale(0.75000001)" />
  <path
     style="opacity:1;fill:#ff8a00;fill-opacity:1;stroke:none;stroke-width:0.14173229;stroke-linecap:butt;stroke-linejoin:round;stroke-miterlimit:4;stroke-dasharray:none;stroke-dashoffset:0;stroke-opacity:1"
     d="m 285.65889,233.37758 c -1.52106,1.72661 -2.77971,3.69186 -4.16997,5.53119 -1.3294,1.88782 -2.76879,3.72412 -4.03497,5.64101 -0.16453,0.89446 1.14627,0.79589 1.70794,1.11387 3.83007,1.23969 7.65127,2.50798 11.49187,3.71442 0.92435,0.0377 0.60466,-1.12043 0.69336,-1.69922 0.0225,-2.41892 0.0715,-4.8543 -0.0111,-7.26314 -1.53182,-2.30665 -3.23875,-4.53392 -4.9061,-6.75981 -0.15432,-0.26112 -0.48577,-0.41032 -0.77099,-0.27832 z"
     id="path1430"
     inkscape:connector-curvature="0"
     transform="scale(0.75000001)" />
</svg>
