<?xml version="1.0" encoding="UTF-8" standalone="no"?>
<!-- Created with matplotlib (https://matplotlib.org/) -->

<svg
   xmlns:dc="http://purl.org/dc/elements/1.1/"
   xmlns:cc="http://creativecommons.org/ns#"
   xmlns:rdf="http://www.w3.org/1999/02/22-rdf-syntax-ns#"
   xmlns:svg="http://www.w3.org/2000/svg"
   xmlns="http://www.w3.org/2000/svg"
   xmlns:sodipodi="http://sodipodi.sourceforge.net/DTD/sodipodi-0.dtd"
   xmlns:inkscape="http://www.inkscape.org/namespaces/inkscape"
   height="345.6pt"
   version="1.1"
   viewBox="0 0 460.8 345.6"
   width="460.8pt"
   id="svg106"
   sodipodi:docname="ten_star_color.svg"
   inkscape:version="0.92.3 (2405546, 2018-03-11)">
  <metadata
     id="metadata110">
    <rdf:RDF>
      <cc:Work
         rdf:about="">
        <dc:format>image/svg+xml</dc:format>
        <dc:type
           rdf:resource="http://purl.org/dc/dcmitype/StillImage" />
        <dc:title></dc:title>
      </cc:Work>
    </rdf:RDF>
  </metadata>
  <sodipodi:namedview
     pagecolor="#ffffff"
     bordercolor="#666666"
     borderopacity="1"
     objecttolerance="10"
     gridtolerance="10"
     guidetolerance="10"
     inkscape:pageopacity="0"
     inkscape:pageshadow="2"
     inkscape:window-width="1853"
     inkscape:window-height="1016"
     id="namedview108"
     showgrid="false"
     inkscape:zoom="2.0486111"
     inkscape:cx="505.6141"
     inkscape:cy="266.11028"
     inkscape:window-x="67"
     inkscape:window-y="27"
     inkscape:window-maximized="1"
     inkscape:current-layer="svg106" />
  <defs
     id="defs4">
    <style
       type="text/css"
       id="style2">
*{stroke-linecap:butt;stroke-linejoin:round;}
  </style>
  </defs>
  <path
     style="opacity:1;fill:#56b4e9;fill-opacity:1;stroke:none;stroke-width:0.09784177;stroke-linecap:butt;stroke-linejoin:round;stroke-miterlimit:4;stroke-dasharray:none;stroke-dashoffset:0;stroke-opacity:1"
     d="m 254.91343,109.16898 c -0.48388,0.46473 0.22273,0.9438 0.43042,1.35574 3.89164,5.41691 7.7816,10.83657 11.77001,16.18265 0.3023,0.35029 0.72502,1.12186 1.27024,0.71468 2.71304,-3.60515 5.30637,-7.3019 7.98883,-10.93081 0.31101,-0.65163 -0.60345,-0.73101 -1.01618,-0.88839 -6.72472,-2.16333 -13.42387,-4.4129 -20.17416,-6.49252 -0.0897,0.0195 -0.17944,0.0391 -0.26916,0.0587 z"
     id="path955"
     inkscape:connector-curvature="0"
     transform="scale(0.75000001)" />
  <path
     style="opacity:1;fill:#ff8a00;fill-opacity:1;stroke:none;stroke-width:0.39136708;stroke-linecap:butt;stroke-linejoin:round;stroke-miterlimit:4;stroke-dasharray:none;stroke-dashoffset:0;stroke-opacity:1"
     d="m 314.66488,64.942051 c -7.96288,10.064269 -15.2479,20.672331 -22.87925,30.998019 -0.1777,8.06237 -0.0253,16.17684 -0.0762,24.25923 2.58912,1.5319 5.92661,2.0394 8.80125,3.18046 4.79564,1.47265 9.54037,3.32573 14.38136,4.53719 7.68415,-2.28366 15.27012,-4.88435 22.90285,-7.33338 0.64823,-2.93768 0.0884,-6.26728 0.27572,-9.35449 -0.0508,-5.09479 0.10189,-10.22172 -0.0762,-15.296426 C 330.3566,85.610393 323.06956,74.999041 315.0983,64.940029 l -0.34516,0.0016 z"
     id="path923"
     inkscape:connector-curvature="0"
     transform="scale(0.75000001)" />
  <defs
     id="defs104">
    <clipPath
       id="p87b7d6959b">
      <rect
         height="266.112"
         width="266.112"
         x="103.104"
         y="41.472"
         id="rect101" />
    </clipPath>
  </defs>
  <path
     style="opacity:1;fill:#ff8a00;fill-opacity:1;stroke:none;stroke-width:0.19568354;stroke-linecap:butt;stroke-linejoin:round;stroke-miterlimit:4;stroke-dasharray:none;stroke-dashoffset:0;stroke-opacity:1"
     d="m 216.0381,96.498329 c -0.51005,0.816805 -0.0975,1.96711 -0.25671,2.898424 -0.10957,12.071877 -0.0514,24.144477 -0.0665,36.216677 2.56141,3.82699 5.41388,7.50642 8.09265,11.27303 2.1449,2.83341 4.09341,5.84199 6.46491,8.48997 0.88958,0.23633 1.80746,-0.5391 2.70346,-0.66311 6.75847,-2.24177 13.588,-4.31981 20.29983,-6.67196 4.74399,-6.16881 9.23793,-12.53464 13.71885,-18.89811 0.49759,-0.4973 0.73575,-1.21153 0.108,-1.71868 -4.57934,-6.32544 -9.12385,-12.70367 -13.80368,-18.93883 -12.29227,-4.05109 -24.61827,-8.04916 -36.94021,-12.02786 l -0.17123,0.02161 z"
     id="path925"
     inkscape:connector-curvature="0"
     transform="scale(0.75000001)" />
  <path
     style="opacity:1;fill:#ff8a00;fill-opacity:1;stroke:none;stroke-width:0.19568354;stroke-linecap:butt;stroke-linejoin:round;stroke-miterlimit:4;stroke-dasharray:none;stroke-dashoffset:0;stroke-opacity:1"
     d="m 173.57619,174.38607 c -6.16305,2.00789 -12.33226,3.99594 -18.48616,6.03194 -0.67952,0.69939 0.58606,1.42075 0.85053,2.08923 7.1734,9.95628 14.3452,19.91467 21.61445,29.80102 2.50608,1.12698 5.22787,1.8191 7.82485,2.74923 5.1708,1.66245 10.31329,3.44325 15.54316,4.90405 0.98352,-0.61336 1.46958,-1.90489 2.25983,-2.77567 4.02551,-5.5918 8.1662,-11.12775 12.10327,-16.76631 0.025,-8.07583 -0.0517,-16.16746 -0.0654,-24.24936 -0.60982,-0.83257 -1.982,-0.76994 -2.90229,-1.23298 -6.75234,-2.15871 -13.48193,-4.46005 -20.2483,-6.53041 -6.17148,1.94674 -12.32875,3.9941 -18.49391,5.97926 z"
     id="path927"
     inkscape:connector-curvature="0"
     transform="scale(0.75000001)" />
  <path
     style="opacity:1;fill:#ff8a00;fill-opacity:1;stroke:none;stroke-width:0.19568354;stroke-linecap:butt;stroke-linejoin:round;stroke-miterlimit:4;stroke-dasharray:none;stroke-dashoffset:0;stroke-opacity:1"
     d="m 200.48785,245.46524 c -7.61839,2.39603 -15.22711,4.85453 -22.75014,7.53226 -4.39008,5.69924 -8.52245,11.61284 -12.77918,17.4188 -3.34616,4.69088 -6.82038,9.30477 -10.04277,14.07573 0.17011,0.8615 1.41637,0.71035 2.06894,1.09527 11.70644,3.83424 23.39648,7.72913 35.16259,11.37378 7.61928,-2.34356 15.18559,-4.92784 22.79802,-7.32159 0.66157,-0.63755 0.14235,-1.79254 0.32863,-2.62546 0.0199,-7.36945 0.096,-14.76135 -0.0204,-22.11674 -4.49773,-6.20257 -8.91887,-12.48425 -13.58491,-18.5688 -0.32756,-0.33785 -0.64341,-0.89287 -1.18078,-0.86325 z"
     id="path929"
     inkscape:connector-curvature="0"
     transform="scale(0.75000001)" />
  <path
     style="opacity:1;fill:#ff8a00;fill-opacity:1;stroke:none;stroke-width:0.19568354;stroke-linecap:butt;stroke-linejoin:round;stroke-miterlimit:4;stroke-dasharray:none;stroke-dashoffset:0;stroke-opacity:1"
     d="m 230.08365,310.079 c -4.90668,6.38231 -9.5265,12.987 -14.29229,19.47716 -0.17874,4.65618 -0.0254,9.36507 -0.0765,14.0415 0,8.33719 0,16.67439 0,25.01158 0.5986,0.91599 1.92319,-0.31934 2.81086,-0.36505 11.53258,-3.76021 23.08903,-7.46115 34.6037,-11.27985 1.87886,-2.14748 3.44252,-4.60397 5.18635,-6.87818 3.09091,-4.27269 6.25479,-8.49808 9.24278,-12.84201 -0.17157,-1.07654 -1.23419,-1.85553 -1.75375,-2.81093 -4.15796,-5.70549 -8.25539,-11.48255 -12.49985,-17.10776 -7.6173,-2.48579 -15.22708,-5.06518 -22.91489,-7.3405 -0.10831,-0.014 -0.20146,0.0834 -0.3064,0.094 z"
     id="path931"
     inkscape:connector-curvature="0"
     transform="scale(0.75000001)" />
  <path
     style="opacity:1;fill:#ff8a00;fill-opacity:1;stroke:none;stroke-width:0.09784177;stroke-linecap:butt;stroke-linejoin:round;stroke-miterlimit:4;stroke-dasharray:none;stroke-dashoffset:0;stroke-opacity:1"
     d="m 399.29269,309.89358 c -7.6164,2.43088 -15.21194,4.92705 -22.81774,7.39103 -0.78157,0.77988 -1.33458,1.78828 -2.02589,2.65842 -4.0913,5.6503 -8.22412,11.2712 -12.26925,16.95441 -0.17243,0.55253 0.45549,0.92484 0.66754,1.37694 4.44062,6.21679 8.96227,12.37516 13.44879,18.55881 0.98311,0.50239 2.11286,0.71711 3.15388,1.10589 11.35802,3.6943 22.71635,7.38765 34.07478,11.08069 0.69692,0.0827 0.50714,-0.77411 0.52957,-1.20622 0.0256,-12.68605 0.012,-25.37214 0.0156,-38.05821 -0.50005,-0.98436 -1.28865,-1.82172 -1.90267,-2.74802 -4.144,-5.6637 -8.2068,-11.38898 -12.44776,-16.98042 -0.0965,-0.12761 -0.28337,-0.14028 -0.4269,-0.13332 z"
     id="path935"
     inkscape:connector-curvature="0"
     transform="scale(0.75000001)" />
  <path
     style="opacity:1;fill:#ff8a00;fill-opacity:1;stroke:none;stroke-width:0.09784177;stroke-linecap:butt;stroke-linejoin:round;stroke-miterlimit:4;stroke-dasharray:none;stroke-dashoffset:0;stroke-opacity:1"
     d="m 428.82241,245.35196 c -0.59731,0.29172 -0.83294,1.02724 -1.27644,1.50592 -4.36342,5.99864 -8.71907,12.00294 -13.07786,18.00495 -0.17358,1.09038 -0.0285,2.23114 -0.0762,3.34141 0,7.00519 0,14.01038 0,21.01557 0.15786,0.59754 0.96633,0.50116 1.42535,0.75368 7.24018,2.35228 14.48035,4.70456 21.72052,7.05683 1.09074,-0.17144 2.13083,-0.66259 3.20156,-0.96032 11.12679,-3.6289 22.26793,-7.21496 33.38684,-10.86727 0.38632,-0.11384 1.09054,-0.33395 0.77965,-0.87033 -7.54981,-10.50615 -15.18738,-20.94914 -22.78217,-31.4229 -0.98304,-0.50271 -2.11286,-0.71758 -3.15387,-1.1066 -6.68106,-2.15198 -13.33502,-4.39415 -20.04712,-6.44622 -0.0333,0.021 -0.0669,-0.009 -0.10028,-0.005 z"
     id="path937"
     inkscape:connector-curvature="0"
     transform="scale(0.75000001)" />
  <path
     style="opacity:1;fill:#ff8a00;fill-opacity:1;stroke:none;stroke-width:0.09784177;stroke-linecap:butt;stroke-linejoin:round;stroke-miterlimit:4;stroke-dasharray:none;stroke-dashoffset:0;stroke-opacity:1"
     d="m 437.53932,168.41157 c -7.62505,2.4123 -15.21881,4.92277 -22.82802,7.38479 -0.51891,0.33475 -0.17926,1.0734 -0.27842,1.58779 -0.0139,7.64141 -0.0278,15.28283 -0.0416,22.92425 0.49934,0.98489 1.28859,1.82224 1.90247,2.74884 3.97268,5.42318 7.85704,10.91227 11.90731,16.27788 0.28768,0.37308 0.692,0.95932 1.23538,0.61885 7.40557,-2.42752 14.84527,-4.75447 22.21445,-7.29101 0.76861,-0.1795 0.99605,-1.06053 1.49095,-1.57982 7.17915,-9.90911 14.43503,-19.76342 21.51562,-29.74343 0.31311,-0.27183 0.3924,-0.86491 -0.10433,-0.97144 -12.152,-4.00879 -24.32272,-7.96162 -36.50686,-11.87156 -0.1658,-0.0512 -0.32955,-0.12006 -0.50692,-0.0851 z"
     id="path939"
     inkscape:connector-curvature="0"
     transform="scale(0.75000001)" />
  <path
     style="opacity:1;fill:#ff8a00;fill-opacity:1;stroke:none;stroke-width:0.09784177;stroke-linecap:butt;stroke-linejoin:round;stroke-miterlimit:4;stroke-dasharray:none;stroke-dashoffset:0;stroke-opacity:1"
     d="m 413.44458,96.451281 c -12.31151,3.963689 -24.6142,7.955749 -36.9044,11.984669 -0.6404,0.57169 -1.05183,1.37783 -1.60091,2.04069 -4.11573,5.64714 -8.27329,11.2655 -12.28608,16.98646 -0.27685,0.41015 -0.77574,0.98216 -0.23844,1.42348 4.60016,6.35176 9.20559,12.69977 13.8288,19.03475 0.70157,0.43672 1.57413,0.55563 2.33999,0.86947 6.89217,2.27508 13.79245,4.52605 20.70291,6.7447 0.59541,0.0387 0.77028,-0.70597 1.13877,-1.04213 4.57105,-6.16965 9.05438,-12.40382 13.56862,-18.61502 0.17359,-1.09031 0.0285,-2.23104 0.0762,-3.34125 -0.0203,-11.74325 0.0492,-23.48713 -0.0623,-35.229933 0.0102,-0.387864 0.008,-0.96775 -0.56312,-0.855886 z"
     id="path941"
     inkscape:connector-curvature="0"
     transform="scale(0.75000001)" />
  <g
     id="figure_1">
    <g
       id="patch_1">
      <path
         d="M 0 345.6  L 460.8 345.6  L 460.8 0  L 0 0  z "
         style="fill:none;"
         id="path6" />
    </g>
    <g
       id="axes_1">
      <g
         id="line2d_1">
        <path
           clip-path="url(#p87b7d6959b)"
           d="M 356.677882 135.369366  L 161.675853 72.009366  "
           style="fill:none;stroke:#000000;stroke-linecap:round;stroke-width:0.8;"
           id="path9" />
      </g>
      <g
         id="line2d_2">
        <path
           clip-path="url(#p87b7d6959b)"
           d="M 161.675853 72.009366  L 161.675853 277.046634  "
           style="fill:none;stroke:#000000;stroke-linecap:round;stroke-width:0.8;"
           id="path12" />
      </g>
      <g
         id="line2d_3">
        <path
           clip-path="url(#p87b7d6959b)"
           d="M 161.675853 277.046634  L 356.677882 213.686634  "
           style="fill:none;stroke:#000000;stroke-linecap:round;stroke-width:0.8;"
           id="path15" />
      </g>
      <g
         id="line2d_4">
        <path
           clip-path="url(#p87b7d6959b)"
           d="M 356.677882 213.686634  L 236.16 47.808  "
           style="fill:none;stroke:#000000;stroke-linecap:round;stroke-width:0.8;"
           id="path18" />
      </g>
      <g
         id="line2d_5">
        <path
           clip-path="url(#p87b7d6959b)"
           d="M 236.16 47.808  L 115.642118 213.686634  "
           style="fill:none;stroke:#000000;stroke-linecap:round;stroke-width:0.8;"
           id="path21" />
      </g>
      <g
         id="line2d_6">
        <path
           clip-path="url(#p87b7d6959b)"
           d="M 115.642118 213.686634  L 310.644147 277.046634  "
           style="fill:none;stroke:#000000;stroke-linecap:round;stroke-width:0.8;"
           id="path24" />
      </g>
      <g
         id="line2d_7">
        <path
           clip-path="url(#p87b7d6959b)"
           d="M 310.644147 277.046634  L 310.644147 72.009366  "
           style="fill:none;stroke:#000000;stroke-linecap:round;stroke-width:0.8;"
           id="path27" />
      </g>
      <g
         id="line2d_8">
        <path
           clip-path="url(#p87b7d6959b)"
           d="M 310.644147 72.009366  L 115.642118 135.369366  "
           style="fill:none;stroke:#000000;stroke-linecap:round;stroke-width:0.8;"
           id="path30" />
      </g>
      <g
         id="line2d_9">
        <path
           clip-path="url(#p87b7d6959b)"
           d="M 115.642118 135.369366  L 236.16 301.248  "
           style="fill:none;stroke:#000000;stroke-linecap:round;stroke-width:0.8;"
           id="path33" />
      </g>
      <g
         id="line2d_10">
        <path
           clip-path="url(#p87b7d6959b)"
           d="M 236.16 301.248  L 356.677882 135.369366  "
           style="fill:none;stroke:#000000;stroke-linecap:round;stroke-width:0.8;"
           id="path36" />
      </g>
      <g
         id="line2d_11">
        <path
           clip-path="url(#p87b7d6959b)"
           d="M 253.743322 72.009366  L 253.743322 277.046634  "
           style="fill:none;stroke:#000000;stroke-linecap:round;stroke-width:0.8;"
           id="path39" />
      </g>
      <g
         id="line2d_12">
        <path
           clip-path="url(#p87b7d6959b)"
           d="M 218.576678 72.009366  L 218.576678 277.046634  "
           style="fill:none;stroke:#000000;stroke-linecap:round;stroke-width:0.8;"
           id="path42" />
      </g>
      <g
         id="line2d_13">
        <path
           clip-path="url(#p87b7d6959b)"
           d="M 190.126265 81.253466  L 310.644147 247.132099  "
           style="fill:none;stroke:#000000;stroke-linecap:round;stroke-width:0.8;"
           id="path45" />
      </g>
      <g
         id="line2d_14">
        <path
           clip-path="url(#p87b7d6959b)"
           d="M 161.675853 101.923901  L 282.193735 267.802534  "
           style="fill:none;stroke:#000000;stroke-linecap:round;stroke-width:0.8;"
           id="path48" />
      </g>
      <g
         id="line2d_15">
        <path
           clip-path="url(#p87b7d6959b)"
           d="M 144.092531 126.125267  L 339.09456 189.485267  "
           style="fill:none;stroke:#000000;stroke-linecap:round;stroke-width:0.8;"
           id="path51" />
      </g>
      <g
         id="line2d_16">
        <path
           clip-path="url(#p87b7d6959b)"
           d="M 133.22544 159.570733  L 328.227469 222.930733  "
           style="fill:none;stroke:#000000;stroke-linecap:round;stroke-width:0.8;"
           id="path54" />
      </g>
      <g
         id="line2d_17">
        <path
           clip-path="url(#p87b7d6959b)"
           d="M 133.22544 189.485267  L 328.227469 126.125267  "
           style="fill:none;stroke:#000000;stroke-linecap:round;stroke-width:0.8;"
           id="path57" />
      </g>
      <g
         id="line2d_18">
        <path
           clip-path="url(#p87b7d6959b)"
           d="M 144.092531 222.930733  L 339.09456 159.570733  "
           style="fill:none;stroke:#000000;stroke-linecap:round;stroke-width:0.8;"
           id="path60" />
      </g>
      <g
         id="line2d_19">
        <path
           clip-path="url(#p87b7d6959b)"
           d="M 161.675853 247.132099  L 282.193735 81.253466  "
           style="fill:none;stroke:#000000;stroke-linecap:round;stroke-width:0.8;"
           id="path63" />
      </g>
      <g
         id="line2d_20">
        <path
           clip-path="url(#p87b7d6959b)"
           d="M 190.126265 267.802534  L 310.644147 101.923901  "
           style="fill:none;stroke:#000000;stroke-linecap:round;stroke-width:0.8;"
           id="path66" />
      </g>
      <g
         id="line2d_21">
        <path
           clip-path="url(#p87b7d6959b)"
           d="M 218.576678 277.046634  L 218.576678 72.009366  "
           style="fill:none;stroke:#000000;stroke-linecap:round;stroke-width:0.8;"
           id="path69" />
      </g>
      <g
         id="line2d_22">
        <path
           clip-path="url(#p87b7d6959b)"
           d="M 253.743322 277.046634  L 253.743322 72.009366  "
           style="fill:none;stroke:#000000;stroke-linecap:round;stroke-width:0.8;"
           id="path72" />
      </g>
      <g
         id="line2d_23">
        <path
           clip-path="url(#p87b7d6959b)"
           d="M 282.193735 267.802534  L 161.675853 101.923901  "
           style="fill:none;stroke:#000000;stroke-linecap:round;stroke-width:0.8;"
           id="path75" />
      </g>
      <g
         id="line2d_24">
        <path
           clip-path="url(#p87b7d6959b)"
           d="M 310.644147 247.132099  L 190.126265 81.253466  "
           style="fill:none;stroke:#000000;stroke-linecap:round;stroke-width:0.8;"
           id="path78" />
      </g>
      <g
         id="line2d_25">
        <path
           clip-path="url(#p87b7d6959b)"
           d="M 328.227469 222.930733  L 133.22544 159.570733  "
           style="fill:none;stroke:#000000;stroke-linecap:round;stroke-width:0.8;"
           id="path81" />
      </g>
      <g
         id="line2d_26">
        <path
           clip-path="url(#p87b7d6959b)"
           d="M 339.09456 189.485267  L 144.092531 126.125267  "
           style="fill:none;stroke:#000000;stroke-linecap:round;stroke-width:0.8;"
           id="path84" />
      </g>
      <g
         id="line2d_27">
        <path
           clip-path="url(#p87b7d6959b)"
           d="M 339.09456 159.570733  L 144.092531 222.930733  "
           style="fill:none;stroke:#000000;stroke-linecap:round;stroke-width:0.8;"
           id="path87" />
      </g>
      <g
         id="line2d_28">
        <path
           clip-path="url(#p87b7d6959b)"
           d="M 328.227469 126.125267  L 133.22544 189.485267  "
           style="fill:none;stroke:#000000;stroke-linecap:round;stroke-width:0.8;"
           id="path90" />
      </g>
      <g
         id="line2d_29">
        <path
           clip-path="url(#p87b7d6959b)"
           d="M 310.644147 101.923901  L 190.126265 267.802534  "
           style="fill:none;stroke:#000000;stroke-linecap:round;stroke-width:0.8;"
           id="path93" />
      </g>
      <g
         id="line2d_30">
        <path
           clip-path="url(#p87b7d6959b)"
           d="M 282.193735 81.253466  L 161.675853 247.132099  "
           style="fill:none;stroke:#000000;stroke-linecap:round;stroke-width:0.8;"
           id="path96" />
      </g>
    </g>
  </g>
  <path
     style="opacity:1;fill:#56b4e9;fill-opacity:1;stroke:none;stroke-width:0.19568354;stroke-linecap:butt;stroke-linejoin:round;stroke-miterlimit:4;stroke-dasharray:none;stroke-dashoffset:0;stroke-opacity:1"
     d="m 290.51507,97.589362 c -4.29613,5.962698 -8.7027,11.850908 -12.89612,17.884488 0.0759,0.93386 1.46624,0.76302 2.11952,1.1774 3.61832,1.19375 7.23376,2.39913 10.87233,3.5295 0.952,-0.12864 0.36106,-1.47071 0.563,-2.10685 0.10038,-6.74742 0.0471,-13.49595 0.0609,-20.243867 -0.056,-0.373005 -0.45143,-0.505516 -0.71966,-0.240671 z"
     id="path957"
     inkscape:connector-curvature="0"
     transform="scale(0.75000001)" />
  <path
     style="opacity:1;fill:#56b4e9;fill-opacity:1;stroke:none;stroke-width:0.19568354;stroke-linecap:butt;stroke-linejoin:round;stroke-miterlimit:4;stroke-dasharray:none;stroke-dashoffset:0;stroke-opacity:1"
     d="m 267.88795,129.064 c -1.16656,0.98193 -1.88118,2.48188 -2.87276,3.66128 -3.38223,4.69112 -6.89538,9.3015 -10.16425,14.06647 -0.23994,0.94431 1.01245,0.61391 1.45278,0.33336 6.56879,-2.18056 13.21473,-4.18807 19.73637,-6.4853 0.35462,-0.80245 -0.66902,-1.49639 -0.96977,-2.19086 -2.22943,-3.14649 -4.4283,-6.33455 -6.89417,-9.29866 -0.0789,-0.0734 -0.18838,-0.072 -0.2882,-0.0863 z"
     id="path959"
     inkscape:connector-curvature="0"
     transform="scale(0.75000001)" />
  <path
     style="opacity:1;fill:#56b4e9;fill-opacity:1;stroke:none;stroke-width:0.19568354;stroke-linecap:butt;stroke-linejoin:round;stroke-miterlimit:4;stroke-dasharray:none;stroke-dashoffset:0;stroke-opacity:1"
     d="m 290.76417,136.37953 c -4.35212,1.27995 -8.63818,2.79145 -12.95848,4.18005 -0.68161,0.85661 0.90305,1.73621 1.22171,2.56981 3.79902,5.22855 7.59817,10.45701 11.39734,15.68546 1.22314,0.44094 0.56153,-1.59666 0.73217,-2.30456 0.0117,-6.58719 0.0905,-13.17527 0.0293,-19.76201 -0.0819,-0.21628 -0.17739,-0.35131 -0.42202,-0.36875 z"
     id="path961"
     inkscape:connector-curvature="0"
     transform="scale(0.75000001)" />
  <path
     style="opacity:1;fill:#56b4e9;fill-opacity:1;stroke:none;stroke-width:0.19568354;stroke-linecap:butt;stroke-linejoin:round;stroke-miterlimit:4;stroke-dasharray:none;stroke-dashoffset:0;stroke-opacity:1"
     d="m 291.91865,121.19265 c -0.48358,0.97202 -0.11468,2.22906 -0.25887,3.30231 0.0247,3.55409 -0.1383,7.13655 0.15134,10.67346 0.6486,0.55294 1.56331,-0.28104 2.29386,-0.33319 6.26546,-2.04003 12.56495,-4.01001 18.75171,-6.26976 0.52586,-0.82306 -0.83082,-0.90325 -1.33726,-1.13844 -6.4163,-2.13078 -12.83097,-4.2722 -19.28292,-6.29202 l -0.16981,0.0308 z"
     id="path963"
     inkscape:connector-curvature="0"
     transform="scale(0.75000001)" />
  <path
     style="opacity:1;fill:#56b4e9;fill-opacity:1;stroke:none;stroke-width:0.19568354;stroke-linecap:butt;stroke-linejoin:round;stroke-miterlimit:4;stroke-dasharray:none;stroke-dashoffset:0;stroke-opacity:1"
     d="m 216.21549,137.58524 c -0.75266,0.47909 -0.31152,1.64435 -0.47236,2.39654 -0.0209,6.57298 -0.14082,13.15529 0.11641,19.72294 0.41176,0.79943 1.46222,-0.0854 2.1066,-0.13171 3.72145,-1.20399 7.46471,-2.35685 11.14412,-3.68093 0.54605,-0.68302 -0.53151,-1.32923 -0.76809,-1.94348 -3.8682,-5.48616 -7.81369,-10.93473 -11.81758,-16.31246 -0.0927,-0.0561 -0.20353,-0.0743 -0.3091,-0.0509 z"
     id="path965"
     inkscape:connector-curvature="0"
     transform="scale(0.75000001)" />
  <path
     style="opacity:1;fill:#56b4e9;fill-opacity:1;stroke:none;stroke-width:0.19568354;stroke-linecap:butt;stroke-linejoin:round;stroke-miterlimit:4;stroke-dasharray:none;stroke-dashoffset:0;stroke-opacity:1"
     d="m 214.55776,161.06111 c -6.77843,2.23593 -13.62042,4.37496 -20.38726,6.6798 -0.74191,0.76696 0.69128,0.9796 1.1929,1.19425 6.37672,2.18677 12.79045,4.26763 19.22132,6.28812 0.91225,-0.0484 0.54945,-1.31936 0.67386,-1.92597 0.005,-3.92405 0.17254,-7.86592 -0.0961,-11.78047 -0.0472,-0.28029 -0.30139,-0.53636 -0.60471,-0.45573 z"
     id="path967"
     inkscape:connector-curvature="0"
     transform="scale(0.75000001)" />
  <path
     style="opacity:1;fill:#56b4e9;fill-opacity:1;stroke:none;stroke-width:0.19568354;stroke-linecap:butt;stroke-linejoin:round;stroke-miterlimit:4;stroke-dasharray:none;stroke-dashoffset:0;stroke-opacity:1"
     d="m 215.90909,176.24765 c -0.46703,1.08161 -0.072,2.4385 -0.20258,3.62692 0,6.27599 0,12.55197 0,18.82796 0.732,1.07726 1.38947,-0.96542 1.94102,-1.44017 3.91276,-5.43441 7.92944,-10.79962 11.74149,-16.30308 -0.0643,-0.91031 -1.41143,-0.72951 -2.0339,-1.13055 -3.76469,-1.18387 -7.51573,-2.54077 -11.29618,-3.59616 z"
     id="path969"
     inkscape:connector-curvature="0"
     transform="scale(0.75000001)" />
  <path
     style="opacity:1;fill:#56b4e9;fill-opacity:1;stroke:none;stroke-width:0.19568354;stroke-linecap:butt;stroke-linejoin:round;stroke-miterlimit:4;stroke-dasharray:none;stroke-dashoffset:0;stroke-opacity:1"
     d="m 238.64879,168.95943 c -2.62727,3.67195 -5.37911,7.26822 -7.83731,11.05368 0.0481,0.89136 1.39579,0.73454 1.99548,1.12616 6.17603,2.02995 12.33151,4.14639 18.55964,6.00262 0.70609,0.0983 0.85222,-0.77463 0.33497,-1.13378 -4.12283,-5.72079 -8.24618,-11.4446 -12.46324,-17.09519 -0.22608,-0.13107 -0.38649,-0.11263 -0.58954,0.0465 z"
     id="path971"
     inkscape:connector-curvature="0"
     transform="scale(0.75000001)" />
  <path
     style="opacity:1;fill:#56b4e9;fill-opacity:1;stroke:none;stroke-width:0.19568354;stroke-linecap:butt;stroke-linejoin:round;stroke-miterlimit:4;stroke-dasharray:none;stroke-dashoffset:0;stroke-opacity:1"
     d="m 251.68716,149.1034 c -6.86945,2.05214 -13.6753,4.3373 -20.454,6.67576 -0.96114,0.27644 -0.0292,1.25351 0.29426,1.69683 2.39228,3.20575 4.55487,6.60823 7.18811,9.62111 0.84313,0.61777 1.27121,-0.81894 1.7586,-1.27449 3.90977,-5.36633 7.86198,-10.70915 11.63437,-16.17079 0.0661,-0.27441 -0.12674,-0.57418 -0.42134,-0.54842 z"
     id="path973"
     inkscape:connector-curvature="0"
     transform="scale(0.75000001)" />
  <path
     style="opacity:1;fill:#56b4e9;fill-opacity:1;stroke:none;stroke-width:0.19568354;stroke-linecap:butt;stroke-linejoin:round;stroke-miterlimit:4;stroke-dasharray:none;stroke-dashoffset:0;stroke-opacity:1"
     d="m 179.15586,213.76873 c -0.36036,0.78489 0.73343,1.38194 0.99067,2.06391 3.85629,5.39415 7.70964,10.79605 11.70456,16.08686 0.86481,0.28474 1.12927,-1.03257 1.67901,-1.47735 2.31262,-3.21388 4.76067,-6.35766 6.89751,-9.68284 -0.24443,-0.87666 -1.5486,-0.69012 -2.222,-1.11571 -6.23894,-2.01709 -12.46632,-4.08323 -18.74267,-5.97633 l -0.16387,0.0541 z"
     id="path975"
     inkscape:connector-curvature="0"
     transform="scale(0.75000001)" />
  <path
     style="opacity:1;fill:#56b4e9;fill-opacity:1;stroke:none;stroke-width:0.19568354;stroke-linecap:butt;stroke-linejoin:round;stroke-miterlimit:4;stroke-dasharray:none;stroke-dashoffset:0;stroke-opacity:1"
     d="m 214.68012,202.1663 c -1.38408,1.38186 -2.37434,3.18271 -3.60164,4.72637 -3.06517,4.25929 -6.1731,8.49031 -9.16505,12.80081 -0.14439,0.87853 1.16348,0.89136 1.70425,1.22898 3.65323,1.29606 7.34859,2.47063 11.03884,3.65557 0.97142,-0.0891 0.38194,-1.4619 0.58137,-2.09235 0.0527,-6.66701 0.16134,-13.34423 -0.0879,-20.0059 -0.0282,-0.1877 -0.30087,-0.34314 -0.46988,-0.31348 z"
     id="path977"
     inkscape:connector-curvature="0"
     transform="scale(0.75000001)" />
  <path
     style="opacity:1;fill:#56b4e9;fill-opacity:1;stroke:none;stroke-width:0.19568354;stroke-linecap:butt;stroke-linejoin:round;stroke-miterlimit:4;stroke-dasharray:none;stroke-dashoffset:0;stroke-opacity:1"
     d="m 215.90167,225.56936 c -0.45257,1.14519 -0.0675,2.54979 -0.19516,3.79512 0.0468,3.43455 -0.0937,6.90871 0.0698,10.31859 0.80551,0.54415 1.97358,-0.47854 2.91513,-0.58132 6.09538,-2.01261 12.22348,-3.96002 18.31409,-5.96743 0.72433,-0.61585 -0.42401,-1.08651 -0.94246,-1.14639 -6.60631,-2.17436 -13.21048,-4.35698 -19.84052,-6.45801 l -0.1713,0.0211 z"
     id="path979"
     inkscape:connector-curvature="0"
     transform="scale(0.75000001)" />
  <path
     style="opacity:1;fill:#56b4e9;fill-opacity:1;stroke:none;stroke-width:0.19568354;stroke-linecap:butt;stroke-linejoin:round;stroke-miterlimit:4;stroke-dasharray:none;stroke-dashoffset:0;stroke-opacity:1"
     d="m 214.7745,240.78422 c -4.26028,1.4029 -8.53819,2.75487 -12.78085,4.20972 -0.65071,0.72495 0.64799,1.44666 0.88246,2.12727 3.85106,5.3742 7.71281,10.74362 11.67659,16.03429 1.08367,0.32665 0.59081,-1.21818 0.7127,-1.82859 0.0548,-6.72067 0.0256,-13.44166 0.0333,-20.16247 -0.0443,-0.26316 -0.26234,-0.43118 -0.52415,-0.38022 z"
     id="path981"
     inkscape:connector-curvature="0"
     transform="scale(0.75000001)" />
  <path
     style="opacity:1;fill:#56b4e9;fill-opacity:1;stroke:none;stroke-width:0.19568354;stroke-linecap:butt;stroke-linejoin:round;stroke-miterlimit:4;stroke-dasharray:none;stroke-dashoffset:0;stroke-opacity:1"
     d="m 191.87199,233.56881 c -4.39816,5.78878 -8.68328,11.67609 -12.88197,17.61246 -0.0739,1.07945 1.23431,0.33555 1.77976,0.22146 6.44845,-2.09014 12.93186,-4.10549 19.33019,-6.33194 0.46524,-0.77654 -0.58868,-1.51706 -0.88129,-2.19783 -2.23836,-3.15205 -4.43121,-6.36482 -6.8876,-9.34359 -0.15209,0.0179 -0.33429,-0.1169 -0.45909,0.0394 z"
     id="path983"
     inkscape:connector-curvature="0"
     transform="scale(0.75000001)" />
  <path
     style="opacity:1;fill:#56b4e9;fill-opacity:1;stroke:none;stroke-width:0.19568354;stroke-linecap:butt;stroke-linejoin:round;stroke-miterlimit:4;stroke-dasharray:none;stroke-dashoffset:0;stroke-opacity:1"
     d="m 216.03246,266.59905 c -0.50673,0.94864 -0.12212,2.20232 -0.28137,3.25528 -0.0375,6.33405 -0.12562,12.67721 0.0805,19.00611 0.60286,0.69255 1.61704,-0.26567 2.37067,-0.30616 3.62903,-1.24866 7.37532,-2.21947 10.89624,-3.75019 0.67894,-0.6829 -0.59012,-1.4052 -0.8382,-2.04219 -3.88299,-5.36504 -7.76211,-10.73268 -11.6831,-16.06982 -0.16105,-0.19244 -0.33143,-0.14874 -0.54471,-0.093 z"
     id="path985"
     inkscape:connector-curvature="0"
     transform="scale(0.75000001)" />
  <path
     style="opacity:1;fill:#56b4e9;fill-opacity:1;stroke:none;stroke-width:0.19568354;stroke-linecap:butt;stroke-linejoin:round;stroke-miterlimit:4;stroke-dasharray:none;stroke-dashoffset:0;stroke-opacity:1"
     d="m 214.55776,290.15244 c -6.7793,2.23763 -13.62396,4.37292 -20.39063,6.68284 -0.73673,0.75735 0.69223,0.98674 1.1929,1.19459 6.3774,2.18692 12.79272,4.26538 19.22469,6.28475 0.9125,-0.0482 0.54926,-1.31974 0.67386,-1.92598 0.005,-3.92405 0.17254,-7.86592 -0.0961,-11.78047 -0.0472,-0.28029 -0.30139,-0.53636 -0.60471,-0.45573 z"
     id="path987"
     inkscape:connector-curvature="0"
     transform="scale(0.75000001)" />
  <path
     style="opacity:1;fill:#56b4e9;fill-opacity:1;stroke:none;stroke-width:0.19568354;stroke-linecap:butt;stroke-linejoin:round;stroke-miterlimit:4;stroke-dasharray:none;stroke-dashoffset:0;stroke-opacity:1"
     d="m 216.24515,305.35213 c -0.78335,0.5155 -0.34626,1.71563 -0.50797,2.50649 -0.01,6.56642 -0.13721,13.14289 0.12135,19.70333 0.54628,0.88119 1.14469,-0.45083 1.49844,-0.85562 4.03027,-5.54105 8.09845,-11.061 12.00239,-16.68976 -0.0716,-0.91722 -1.41422,-0.75504 -2.06465,-1.14864 -3.63874,-1.18411 -7.26842,-2.4188 -10.92585,-3.53198 z"
     id="path989"
     inkscape:connector-curvature="0"
     transform="scale(0.75000001)" />
  <path
     style="opacity:1;fill:#56b4e9;fill-opacity:1;stroke:none;stroke-width:0.19568354;stroke-linecap:butt;stroke-linejoin:round;stroke-miterlimit:4;stroke-dasharray:none;stroke-dashoffset:0;stroke-opacity:1"
     d="m 238.76171,297.94661 c -2.65917,3.69931 -5.44765,7.31911 -7.94012,11.13323 0.0275,0.91862 1.40559,0.76652 2.02919,1.16526 6.28593,2.07648 12.56555,4.19573 18.88323,6.16138 0.98863,-0.1976 0.10799,-1.23641 -0.23193,-1.64073 -4.02994,-5.59989 -8.0994,-11.17095 -12.15251,-16.75408 -0.1974,-0.17123 -0.35856,-0.18296 -0.58786,-0.0651 z"
     id="path991"
     inkscape:connector-curvature="0"
     transform="scale(0.75000001)" />
  <path
     style="opacity:1;fill:#56b4e9;fill-opacity:1;stroke:none;stroke-width:0.19568354;stroke-linecap:butt;stroke-linejoin:round;stroke-miterlimit:4;stroke-dasharray:none;stroke-dashoffset:0;stroke-opacity:1"
     d="m 251.64603,278.19946 c -6.81847,2.02676 -13.56382,4.31766 -20.27755,6.6706 -0.81232,0.11197 -0.54387,0.99222 -0.0799,1.38384 2.48302,3.36807 4.77906,6.90103 7.52975,10.05689 0.79757,0.36622 1.08181,-0.90452 1.56929,-1.31736 3.92803,-5.39059 7.88626,-10.76389 11.70503,-16.23106 0.0876,-0.29096 -0.13137,-0.61452 -0.44663,-0.56291 z"
     id="path993"
     inkscape:connector-curvature="0"
     transform="scale(0.75000001)" />
  <path
     style="opacity:1;fill:#56b4e9;fill-opacity:1;stroke:none;stroke-width:0.19568354;stroke-linecap:butt;stroke-linejoin:round;stroke-miterlimit:4;stroke-dasharray:none;stroke-dashoffset:0;stroke-opacity:1"
     d="m 255.0397,318.23309 c -0.27937,0.83693 0.82421,1.46102 1.10737,2.18636 3.73624,5.17614 7.35575,10.44972 11.34078,15.4379 0.38534,0.63709 1.14323,0.355 1.36998,-0.26702 2.51185,-3.4504 5.10121,-6.86994 7.39867,-10.46037 -0.31817,-0.92192 -1.79112,-0.75186 -2.56776,-1.21045 -6.11748,-1.93527 -12.18609,-4.05776 -18.35343,-5.81721 l -0.15783,0.0698 z"
     id="path995"
     inkscape:connector-curvature="0"
     transform="scale(0.75000001)" />
  <path
     style="opacity:1;fill:#56b4e9;fill-opacity:1;stroke:none;stroke-width:0.19568354;stroke-linecap:butt;stroke-linejoin:round;stroke-miterlimit:4;stroke-dasharray:none;stroke-dashoffset:0;stroke-opacity:1"
     d="m 290.56664,306.58852 c -1.74882,1.97465 -3.16751,4.27815 -4.78178,6.38243 -2.69859,3.75548 -5.45157,7.47516 -8.07894,11.27992 -0.0388,0.92977 1.34716,0.80662 1.93601,1.2052 3.6614,1.22582 7.32198,2.51565 11.03629,3.54519 0.78617,-0.43768 0.34407,-1.6234 0.50706,-2.37122 0.0393,-6.57432 0.15325,-13.15942 -0.10224,-19.72804 -0.0272,-0.22553 -0.3236,-0.35772 -0.5164,-0.31348 z"
     id="path997"
     inkscape:connector-curvature="0"
     transform="scale(0.75000001)" />
  <path
     style="opacity:1;fill:#56b4e9;fill-opacity:1;stroke:none;stroke-width:0.19568354;stroke-linecap:butt;stroke-linejoin:round;stroke-miterlimit:4;stroke-dasharray:none;stroke-dashoffset:0;stroke-opacity:1"
     d="m 292.05752,330.03338 c -0.63966,0.71088 -0.24368,1.86819 -0.39365,2.7495 0.006,3.76794 -0.10639,7.57472 0.0485,11.31803 0.80549,0.54409 1.97393,-0.47746 2.91564,-0.57977 6.01685,-2.03339 12.13212,-3.79338 18.09044,-5.99629 0.76889,-0.28473 0.14015,-1.06771 -0.46056,-1.04294 -6.64939,-2.19558 -13.31545,-4.34953 -19.9803,-6.49235 l -0.16926,0.0337 z"
     id="path999"
     inkscape:connector-curvature="0"
     transform="scale(0.75000001)" />
  <path
     style="opacity:1;fill:#56b4e9;fill-opacity:1;stroke:none;stroke-width:0.19568354;stroke-linecap:butt;stroke-linejoin:round;stroke-miterlimit:4;stroke-dasharray:none;stroke-dashoffset:0;stroke-opacity:1"
     d="m 267.742,337.83058 c -4.28953,5.93985 -8.67138,11.8212 -12.88466,17.81404 -0.29618,0.91726 0.94288,0.57091 1.37695,0.34348 6.56384,-2.1187 13.12958,-4.23402 19.66794,-6.43003 0.69236,-0.5711 -0.35058,-1.36342 -0.58792,-1.93185 -2.31356,-3.31209 -4.65779,-6.65234 -7.13373,-9.8172 -0.12561,-0.1785 -0.2924,0.0145 -0.43858,0.0216 z"
     id="path1001"
     inkscape:connector-curvature="0"
     transform="scale(0.75000001)" />
  <path
     style="opacity:1;fill:#56b4e9;fill-opacity:1;stroke:none;stroke-width:0.19568354;stroke-linecap:butt;stroke-linejoin:round;stroke-miterlimit:4;stroke-dasharray:none;stroke-dashoffset:0;stroke-opacity:1"
     d="m 290.71192,345.1906 c -4.35087,1.44638 -8.7909,2.7428 -13.07755,4.30772 -0.26864,0.93428 1.06317,1.73017 1.45112,2.59433 3.79775,5.20564 7.56007,10.43729 11.39722,15.61383 1.07266,0.43362 0.63749,-1.19676 0.73055,-1.80468 0.0341,-6.77671 0.0172,-13.55354 0.0215,-20.33031 -0.0445,-0.26315 -0.26092,-0.42972 -0.52281,-0.38089 z"
     id="path1003"
     inkscape:connector-curvature="0"
     transform="scale(0.75000001)" />
  <path
     style="opacity:1;fill:#56b4e9;fill-opacity:1;stroke:none;stroke-width:0.19568354;stroke-linecap:butt;stroke-linejoin:round;stroke-miterlimit:4;stroke-dasharray:none;stroke-dashoffset:0;stroke-opacity:1"
     d="m 337.66366,330.00945 c -6.92743,2.13035 -13.82628,4.36968 -20.69736,6.67778 -0.74693,0.74845 0.67082,1.00901 1.17639,1.21043 6.43703,2.24532 12.94683,4.27396 19.42457,6.39733 1.05497,-0.28843 0.30186,-1.93351 0.53971,-2.79395 -9e-5,-3.73084 0.10681,-7.46702 -5e-5,-11.19497 -0.12007,-0.16802 -0.20719,-0.32432 -0.44326,-0.29662 z"
     id="path1005"
     inkscape:connector-curvature="0"
     transform="scale(0.75000001)" />
  <path
     style="opacity:1;fill:#56b4e9;fill-opacity:1;stroke:none;stroke-width:0.19568354;stroke-linecap:butt;stroke-linejoin:round;stroke-miterlimit:4;stroke-dasharray:none;stroke-dashoffset:0;stroke-opacity:1"
     d="m 338.76758,306.61077 c -0.33304,1.30706 -0.063,2.762 -0.16643,4.12038 0.006,5.99496 -0.0955,11.99738 0.10441,17.98764 0.55008,0.69474 1.52383,-0.18352 2.23627,-0.24329 3.62557,-1.18402 7.26533,-2.33293 10.85671,-3.61587 0.62904,-0.69592 -0.59982,-1.40147 -0.82082,-2.05219 -3.8253,-5.4245 -7.63806,-10.86221 -11.61925,-16.17341 -0.20907,-0.15711 -0.37045,-0.15752 -0.59089,-0.0233 z"
     id="path1007"
     inkscape:connector-curvature="0"
     transform="scale(0.75000001)" />
  <path
     style="opacity:1;fill:#56b4e9;fill-opacity:1;stroke:none;stroke-width:0.19568354;stroke-linecap:butt;stroke-linejoin:round;stroke-miterlimit:4;stroke-dasharray:none;stroke-dashoffset:0;stroke-opacity:1"
     d="m 338.7868,345.22734 c -0.46565,1.08206 -0.0717,2.4382 -0.20191,3.62658 0,6.217 0,12.43399 0,18.65099 0.73203,1.07722 1.38927,-0.96582 1.94093,-1.44056 3.86278,-5.35722 7.81064,-10.65589 11.58687,-16.07348 0.0778,-0.88454 -1.19656,-0.80297 -1.75375,-1.14787 -3.80509,-1.20263 -7.60264,-2.55229 -11.42225,-3.63106 z"
     id="path1009"
     inkscape:connector-curvature="0"
     transform="scale(0.75000001)" />
  <path
     style="opacity:1;fill:#56b4e9;fill-opacity:1;stroke:none;stroke-width:0.19568354;stroke-linecap:butt;stroke-linejoin:round;stroke-miterlimit:4;stroke-dasharray:none;stroke-dashoffset:0;stroke-opacity:1"
     d="m 361.57335,338.01867 c -2.3397,2.70784 -4.32714,5.73364 -6.45844,8.61573 -0.47933,0.87588 -1.41075,1.6136 -1.58651,2.60614 0.88093,0.7706 2.24041,0.80788 3.29625,1.30381 5.87368,1.89904 11.70756,3.9483 17.62258,5.70464 0.9408,-0.0925 0.20779,-1.11787 -0.12742,-1.48447 -4.05397,-5.60548 -8.07911,-11.24382 -12.31703,-16.7081 -0.14247,0.003 -0.29157,-0.14589 -0.42943,-0.0378 z"
     id="path1011"
     inkscape:connector-curvature="0"
     transform="scale(0.75000001)" />
  <path
     style="opacity:1;fill:#56b4e9;fill-opacity:1;stroke:none;stroke-width:0.19568354;stroke-linecap:butt;stroke-linejoin:round;stroke-miterlimit:4;stroke-dasharray:none;stroke-dashoffset:0;stroke-opacity:1"
     d="m 374.40509,318.09118 c -6.93405,2.12615 -13.84638,4.3401 -20.72366,6.64339 -0.60715,0.68058 0.55089,1.34156 0.79193,1.97014 2.32107,3.23184 4.60103,6.50233 7.04538,9.63971 0.86851,0.22698 1.11329,-1.06926 1.67208,-1.51542 3.91992,-5.37965 7.91248,-10.71974 11.65786,-16.21839 0.0467,-0.28052 -0.15292,-0.54386 -0.44359,-0.51943 z"
     id="path1013"
     inkscape:connector-curvature="0"
     transform="scale(0.75000001)" />
  <path
     style="opacity:1;fill:#56b4e9;fill-opacity:1;stroke:none;stroke-width:0.19568354;stroke-linecap:butt;stroke-linejoin:round;stroke-miterlimit:4;stroke-dasharray:none;stroke-dashoffset:0;stroke-opacity:1"
     d="m 390.65679,298.07133 c -1.26659,1.09234 -2.07633,2.67774 -3.14698,3.96741 -3.20527,4.4725 -6.58322,8.8291 -9.64229,13.40202 -0.44718,0.5243 0.21747,1.21339 0.77908,0.76966 6.70438,-2.18563 13.44602,-4.29661 20.10334,-6.60306 0.40586,-0.80295 -0.63763,-1.5239 -0.93891,-2.21997 -2.20594,-3.12413 -4.41339,-6.26106 -6.79593,-9.24999 -0.12,-0.015 -0.22841,-0.13425 -0.35831,-0.0661 z"
     id="path1015"
     inkscape:connector-curvature="0"
     transform="scale(0.75000001)" />
  <path
     style="opacity:1;fill:#56b4e9;fill-opacity:1;stroke:none;stroke-width:0.19568354;stroke-linecap:butt;stroke-linejoin:round;stroke-miterlimit:4;stroke-dasharray:none;stroke-dashoffset:0;stroke-opacity:1"
     d="m 377.81325,278.30024 c -0.39184,0.78144 0.72485,1.39044 0.97954,2.07334 3.85601,5.39309 7.70659,10.79561 11.70018,16.08586 0.86471,0.28255 1.12412,-1.03358 1.67349,-1.4793 2.30972,-3.21158 4.73636,-6.36058 6.88988,-9.67246 -0.21629,-0.89218 -1.54473,-0.6993 -2.21492,-1.1265 -6.23095,-2.01492 -12.45222,-4.069 -18.71773,-5.97094 l -0.16575,0.0481 z"
     id="path1017"
     inkscape:connector-curvature="0"
     transform="scale(0.75000001)" />
  <path
     style="opacity:1;fill:#56b4e9;fill-opacity:1;stroke:none;stroke-width:0.19568354;stroke-linecap:butt;stroke-linejoin:round;stroke-miterlimit:4;stroke-dasharray:none;stroke-dashoffset:0;stroke-opacity:1"
     d="m 413.3311,305.34573 c -4.2243,1.38683 -8.47718,2.6928 -12.67366,4.16084 -0.64767,0.67964 0.5827,1.38842 0.80008,2.02472 3.8305,5.4321 7.77669,10.78132 11.67302,16.16617 1.22064,0.44192 0.56688,-1.59518 0.74095,-2.30249 0.0731,-6.55718 0.0524,-13.11494 -0.0173,-19.67206 -0.0469,-0.26235 -0.26186,-0.42563 -0.52313,-0.37718 z"
     id="path1019"
     inkscape:connector-curvature="0"
     transform="scale(0.75000001)" />
  <path
     style="opacity:1;fill:#56b4e9;fill-opacity:1;stroke:none;stroke-width:0.19568354;stroke-linecap:butt;stroke-linejoin:round;stroke-miterlimit:4;stroke-dasharray:none;stroke-dashoffset:0;stroke-opacity:1"
     d="m 414.54321,290.11537 c -0.45185,1.14556 -0.0673,2.54949 -0.19482,3.79478 0.0468,3.43646 -0.0937,6.91252 0.0698,10.32432 0.80549,0.54408 1.97394,-0.47744 2.91565,-0.57974 6.01615,-2.03168 12.1247,-3.79462 18.07998,-5.99969 0.66428,-0.20084 0.31176,-1.0035 -0.28363,-0.98485 -6.74723,-2.22313 -13.49495,-4.44666 -20.26644,-6.5946 l -0.17127,0.0213 z"
     id="path1021"
     inkscape:connector-curvature="0"
     transform="scale(0.75000001)" />
  <path
     style="opacity:1;fill:#56b4e9;fill-opacity:1;stroke:none;stroke-width:0.19568354;stroke-linecap:butt;stroke-linejoin:round;stroke-miterlimit:4;stroke-dasharray:none;stroke-dashoffset:0;stroke-opacity:1"
     d="m 413.2657,266.72478 c -1.85284,2.10286 -3.36063,4.53966 -5.06368,6.78124 -2.58413,3.64434 -5.27204,7.2266 -7.73469,10.95054 0.14246,0.90612 1.47841,0.75197 2.13705,1.16696 3.55583,1.19306 7.1189,2.36582 10.69402,3.49984 0.97184,-0.0882 0.38163,-1.46197 0.58137,-2.09202 0.0459,-6.67216 0.17474,-13.3573 -0.0967,-20.02241 -0.0389,-0.19613 -0.34153,-0.35052 -0.51741,-0.28415 z"
     id="path1023"
     inkscape:connector-curvature="0"
     transform="scale(0.75000001)" />
  <path
     style="opacity:1;fill:#56b4e9;fill-opacity:1;stroke:none;stroke-width:0.19568354;stroke-linecap:butt;stroke-linejoin:round;stroke-miterlimit:4;stroke-dasharray:none;stroke-dashoffset:0;stroke-opacity:1"
     d="m 414.54659,240.80613 c -0.45795,1.08517 -0.0698,2.43611 -0.1982,3.62422 0.0614,6.20263 -0.13736,12.42014 0.16449,18.61391 0.57305,0.82814 1.13319,-0.49344 1.48596,-0.89118 4.03673,-5.50762 8.03493,-11.04309 12.04993,-16.56657 0.0516,-1.0939 -1.74948,-0.8771 -2.49625,-1.36544 -3.61907,-1.12533 -7.21129,-2.47179 -10.8565,-3.43205 z"
     id="path1025"
     inkscape:connector-curvature="0"
     transform="scale(0.75000001)" />
  <path
     style="opacity:1;fill:#56b4e9;fill-opacity:1;stroke:none;stroke-width:0.19568354;stroke-linecap:butt;stroke-linejoin:round;stroke-miterlimit:4;stroke-dasharray:none;stroke-dashoffset:0;stroke-opacity:1"
     d="m 437.28393,233.51083 c -2.6521,3.71276 -5.46807,7.35464 -8.00649,11.11957 0.33135,0.91358 1.87493,0.77961 2.69563,1.25281 6.01152,1.90095 11.94921,4.06021 18.01822,5.76592 0.68729,0.21292 0.90511,-0.66384 0.39519,-1.02563 -4.13392,-5.75487 -8.26481,-11.51751 -12.51975,-17.18143 -0.22923,-0.11698 -0.38833,-0.0978 -0.5828,0.0688 z"
     id="path1027"
     inkscape:connector-curvature="0"
     transform="scale(0.75000001)" />
  <path
     style="opacity:1;fill:#56b4e9;fill-opacity:1;stroke:none;stroke-width:0.19568354;stroke-linecap:butt;stroke-linejoin:round;stroke-miterlimit:4;stroke-dasharray:none;stroke-dashoffset:0;stroke-opacity:1"
     d="m 450.33578,213.6548 c -6.80555,2.09481 -13.61014,4.23125 -20.31075,6.6471 -0.70603,0.11112 -0.6874,0.89574 -0.18943,1.28089 2.48838,3.38554 4.77919,6.94275 7.53192,10.11997 0.82214,0.55776 1.19201,-0.8412 1.67918,-1.27059 3.92584,-5.38798 7.89153,-10.75282 11.69862,-16.22356 0.0715,-0.27768 -0.11325,-0.56514 -0.40954,-0.55381 z"
     id="path1029"
     inkscape:connector-curvature="0"
     transform="scale(0.75000001)" />
  <path
     style="opacity:1;fill:#56b4e9;fill-opacity:1;stroke:none;stroke-width:0.19568354;stroke-linecap:butt;stroke-linejoin:round;stroke-miterlimit:4;stroke-dasharray:none;stroke-dashoffset:0;stroke-opacity:1"
     d="m 414.53681,202.02271 c -0.34309,1.31306 -0.0655,2.78186 -0.1716,4.14903 0.0128,6.04924 -0.11366,12.10947 0.12744,18.1518 0.56695,0.66491 1.52752,-0.21627 2.23585,-0.27054 3.68177,-1.1967 7.37381,-2.36677 11.03005,-3.63851 0.62524,-0.71091 -0.60224,-1.40118 -0.85194,-2.06369 -3.90034,-5.45113 -7.78641,-10.91411 -11.77925,-16.29776 -0.20716,-0.15945 -0.36856,-0.16187 -0.59055,-0.0303 z"
     id="path1031"
     inkscape:connector-curvature="0"
     transform="scale(0.75000001)" />
  <path
     style="opacity:1;fill:#56b4e9;fill-opacity:1;stroke:none;stroke-width:0.19568354;stroke-linecap:butt;stroke-linejoin:round;stroke-miterlimit:4;stroke-dasharray:none;stroke-dashoffset:0;stroke-opacity:1"
     d="m 413.20098,225.6061 c -6.75957,2.23439 -13.54787,4.38414 -20.29186,6.66497 -0.75794,0.73124 0.64027,1.0094 1.14032,1.20336 6.353,2.21463 12.76078,4.272 19.17716,6.29351 0.91211,-0.0479 0.54958,-1.31873 0.67386,-1.92497 0.006,-3.92212 0.17014,-7.86139 -0.0948,-11.7744 -0.0451,-0.28251 -0.29838,-0.54366 -0.60472,-0.46247 z"
     id="path1033"
     inkscape:connector-curvature="0"
     transform="scale(0.75000001)" />
  <path
     style="opacity:1;fill:#56b4e9;fill-opacity:1;stroke:none;stroke-width:0.19568354;stroke-linecap:butt;stroke-linejoin:round;stroke-miterlimit:4;stroke-dasharray:none;stroke-dashoffset:0;stroke-opacity:1"
     d="m 413.2411,137.7922 c -1.00863,0.8102 -1.58886,2.11544 -2.43908,3.10165 -3.42982,4.74279 -6.8921,9.46409 -10.24199,14.26341 -0.18481,0.90179 1.18916,0.90692 1.73323,1.25695 3.67219,1.27361 7.35758,2.57246 11.09076,3.6286 0.78583,-0.43699 0.34429,-1.62176 0.50707,-2.36886 0.0377,-6.40841 0.14274,-12.82388 -0.048,-19.22917 -0.009,-0.32894 -0.20091,-0.7439 -0.60201,-0.65258 z"
     id="path1035"
     inkscape:connector-curvature="0"
     transform="scale(0.75000001)" />
  <path
     style="opacity:1;fill:#56b4e9;fill-opacity:1;stroke:none;stroke-width:0.19568354;stroke-linecap:butt;stroke-linejoin:round;stroke-miterlimit:4;stroke-dasharray:none;stroke-dashoffset:0;stroke-opacity:1"
     d="m 377.79404,149.22677 c -0.36209,0.78498 0.73023,1.38625 0.98661,2.06795 3.85603,5.3978 7.71037,10.80408 11.72142,16.08552 0.86755,0.26502 1.1175,-1.0414 1.66702,-1.49283 2.30893,-3.21138 4.73393,-6.36073 6.88893,-9.67073 -0.21673,-0.89419 -1.54813,-0.7039 -2.21963,-1.13223 -6.23644,-2.01428 -12.4612,-4.07944 -18.73795,-5.95981 l -0.16373,0.0546 z"
     id="path1037"
     inkscape:connector-curvature="0"
     transform="scale(0.75000001)" />
  <path
     style="opacity:1;fill:#56b4e9;fill-opacity:1;stroke:none;stroke-width:0.19568354;stroke-linecap:butt;stroke-linejoin:round;stroke-miterlimit:4;stroke-dasharray:none;stroke-dashoffset:0;stroke-opacity:1"
     d="m 390.55398,169.04707 c -4.36464,5.63877 -8.53247,11.44204 -12.69489,17.23562 -0.56322,0.4709 0.0609,1.19593 0.65932,0.84673 6.72882,-2.09425 13.41944,-4.31921 20.10883,-6.53823 0.71213,-0.58097 -0.34361,-1.40698 -0.5919,-1.98638 -2.26207,-3.23452 -4.55145,-6.46376 -7.00238,-9.5547 -0.16084,-0.004 -0.33269,-0.16389 -0.47898,-0.003 z"
     id="path1039"
     inkscape:connector-curvature="0"
     transform="scale(0.75000001)" />
  <path
     style="opacity:1;fill:#56b4e9;fill-opacity:1;stroke:none;stroke-width:0.19568354;stroke-linecap:butt;stroke-linejoin:round;stroke-miterlimit:4;stroke-dasharray:none;stroke-dashoffset:0;stroke-opacity:1"
     d="m 413.41638,176.24226 c -4.27229,1.45508 -8.63718,2.6785 -12.82669,4.35534 -0.48873,0.72076 0.66714,1.37248 0.91363,2.01568 3.87132,5.39155 7.75198,10.77709 11.68283,16.12531 1.07184,0.44302 0.64214,-1.19148 0.73292,-1.79861 0.0341,-6.77244 0.0172,-13.545 0.0215,-20.3175 -0.0443,-0.26316 -0.26234,-0.43118 -0.52415,-0.38022 z"
     id="path1041"
     inkscape:connector-curvature="0"
     transform="scale(0.75000001)" />
  <path
     style="opacity:1;fill:#56b4e9;fill-opacity:1;stroke:none;stroke-width:0.19568354;stroke-linecap:butt;stroke-linejoin:round;stroke-miterlimit:4;stroke-dasharray:none;stroke-dashoffset:0;stroke-opacity:1"
     d="m 414.61804,161.05471 c -0.48477,0.87283 -0.10835,2.04063 -0.25143,3.01846 0.0118,3.68534 -0.10478,7.40905 0.0516,11.06963 0.80549,0.54408 1.97395,-0.47739 2.91567,-0.57967 6.02132,-2.03511 12.13798,-3.79917 18.09648,-6.01122 0.75982,-0.31524 0.0922,-1.06017 -0.49624,-1.04041 -6.65559,-2.19957 -13.31461,-4.39152 -19.99687,-6.50803 l -0.1704,0.0274 z"
     id="path1043"
     inkscape:connector-curvature="0"
     transform="scale(0.75000001)" />
  <path
     style="opacity:1;fill:#56b4e9;fill-opacity:1;stroke:none;stroke-width:0.19568354;stroke-linecap:butt;stroke-linejoin:round;stroke-miterlimit:4;stroke-dasharray:none;stroke-dashoffset:0;stroke-opacity:1"
     d="m 338.91017,97.813854 c -0.50565,0.948331 -0.1222,2.201376 -0.28079,3.253936 -0.0754,6.25091 -0.0333,12.50245 -0.0445,18.75364 0.44791,0.86753 1.5753,-0.13333 2.30356,-0.17696 3.64973,-1.18647 7.31361,-2.3385 10.92795,-3.62793 0.6338,-0.68783 -0.59131,-1.3998 -0.80665,-2.04281 -3.79877,-5.40143 -7.58813,-10.81456 -11.56836,-16.083698 -0.15414,-0.18711 -0.33229,-0.117151 -0.53122,-0.07618 z"
     id="path1045"
     inkscape:connector-curvature="0"
     transform="scale(0.75000001)" />
  <path
     style="opacity:1;fill:#56b4e9;fill-opacity:1;stroke:none;stroke-width:0.19568354;stroke-linecap:butt;stroke-linejoin:round;stroke-miterlimit:4;stroke-dasharray:none;stroke-dashoffset:0;stroke-opacity:1"
     d="m 337.6431,121.17714 c -6.927,2.12728 -13.82356,4.36172 -20.70579,6.63126 -0.75434,0.57731 0.38526,1.00898 0.87922,1.11754 6.54222,2.30036 13.16381,4.3658 19.75006,6.53506 1.056,-0.28642 0.30245,-1.93341 0.54039,-2.79362 -0.006,-3.7353 0.11885,-7.47848 -0.0142,-11.20946 -0.1271,-0.15998 -0.21476,-0.31715 -0.44966,-0.28078 z"
     id="path1047"
     inkscape:connector-curvature="0"
     transform="scale(0.75000001)" />
  <path
     style="opacity:1;fill:#56b4e9;fill-opacity:1;stroke:none;stroke-width:0.19568354;stroke-linecap:butt;stroke-linejoin:round;stroke-miterlimit:4;stroke-dasharray:none;stroke-dashoffset:0;stroke-opacity:1"
     d="m 338.78747,136.38121 c -0.46702,1.08161 -0.072,2.4385 -0.20258,3.62692 0.0542,6.14945 -0.12419,12.31194 0.15977,18.45346 0.6269,0.82407 1.14515,-0.55857 1.54497,-0.97147 3.95646,-5.4232 7.92135,-10.84176 11.8062,-16.31605 0.12268,-0.97098 -1.35498,-0.81164 -1.94828,-1.2165 -3.72813,-1.20842 -7.45846,-2.5355 -11.21023,-3.59144 z"
     id="path1049"
     inkscape:connector-curvature="0"
     transform="scale(0.75000001)" />
  <path
     style="opacity:1;fill:#56b4e9;fill-opacity:1;stroke:none;stroke-width:0.19568354;stroke-linecap:butt;stroke-linejoin:round;stroke-miterlimit:4;stroke-dasharray:none;stroke-dashoffset:0;stroke-opacity:1"
     d="m 361.70076,129.10108 c -1.02277,0.72194 -1.57584,2.01621 -2.40833,2.95575 -1.92961,2.72201 -4.03992,5.35011 -5.78122,8.18725 0.28762,0.84153 1.53812,0.69054 2.22706,1.10088 6.23204,2.05337 12.46778,4.09627 18.71873,6.09127 1.01342,-0.0513 0.16889,-1.12004 -0.14224,-1.4993 -3.94156,-5.48964 -7.86066,-11.00146 -11.91827,-16.40406 -0.18805,-0.19131 -0.39243,-0.46472 -0.69573,-0.43179 z"
     id="path1051"
     inkscape:connector-curvature="0"
     transform="scale(0.75000001)" />
  <path
     style="opacity:1;fill:#56b4e9;fill-opacity:1;stroke:none;stroke-width:0.19568354;stroke-linecap:butt;stroke-linejoin:round;stroke-miterlimit:4;stroke-dasharray:none;stroke-dashoffset:0;stroke-opacity:1"
     d="m 374.30768,109.26258 c -6.90041,2.13199 -13.78171,4.34034 -20.62726,6.64137 -0.6027,0.68186 0.55394,1.34289 0.79389,1.97244 2.32287,3.23451 4.59601,6.51606 7.05151,9.6482 0.86944,0.21071 1.1124,-1.07863 1.67126,-1.5275 3.89836,-5.36904 7.85614,-10.70648 11.56767,-16.20362 0.10339,-0.28436 -0.17931,-0.5606 -0.45707,-0.53089 z"
     id="path1053"
     inkscape:connector-curvature="0"
     transform="scale(0.75000001)" />
  <path
     style="opacity:1;fill:#000000;fill-opacity:1;stroke:none;stroke-width:0.13836916;stroke-linecap:butt;stroke-linejoin:round;stroke-miterlimit:4;stroke-dasharray:none;stroke-dashoffset:0;stroke-opacity:1"
     d="m 230.02551,180.86269 c -4.77786,6.46596 -9.46204,13.01445 -14.20265,19.51303 -0.17959,1.84373 -0.0233,3.74057 -0.0751,5.6045 0.001,6.23223 0.003,12.46446 0.004,18.69669 0.28893,0.69518 1.30236,0.57506 1.90094,0.90886 7.07588,2.28538 14.1317,4.63608 21.22925,6.85221 2.07979,-0.494 4.10454,-1.28813 6.16112,-1.90058 10.34217,-3.34937 20.69681,-6.66351 31.00941,-10.10188 0.62626,-0.56451 -0.39101,-1.17999 -0.60978,-1.70818 -7.2774,-10.13312 -14.58153,-20.24766 -21.94004,-30.32238 -1.49713,-0.69956 -3.16236,-1.06979 -4.72506,-1.63783 -6.14868,-1.99468 -12.28958,-4.01554 -18.45494,-5.95735 -0.099,0.0176 -0.19799,0.0353 -0.29698,0.0529 z"
     id="path1057"
     inkscape:connector-curvature="0"
     transform="scale(0.75000001)" />
  <path
     style="opacity:1;fill:#000000;fill-opacity:1;stroke:none;stroke-width:0.13836916;stroke-linecap:butt;stroke-linejoin:round;stroke-miterlimit:4;stroke-dasharray:none;stroke-dashoffset:0;stroke-opacity:1"
     d="m 238.86343,232.98594 c -7.62867,2.41204 -15.23329,4.90064 -22.84108,7.37805 -0.57091,0.49032 -0.14317,1.41637 -0.27515,2.08888 0.003,7.45781 0.005,14.91562 0.008,22.37344 0.93877,1.59699 2.18056,3.0394 3.23456,4.5776 3.6896,5.02312 7.27674,10.12735 11.08941,15.05674 0.70775,0.26009 1.44346,-0.34568 2.1531,-0.44905 7.06383,-2.28519 14.13985,-4.54251 21.15561,-6.96903 2.3171,-2.96865 4.46156,-6.09177 6.7082,-9.12239 5.38289,-7.41995 10.78644,-14.8249 16.13192,-22.27179 0.24477,-0.78354 -0.86317,-0.75008 -1.32665,-1.0094 -11.82071,-3.94374 -23.66093,-7.83191 -35.54546,-11.57892 -0.16125,-0.0393 -0.32221,-0.11565 -0.49219,-0.0741 z"
     id="path1059"
     inkscape:connector-curvature="0"
     transform="scale(0.75000001)" />
  <path
     style="opacity:1;fill:#000000;fill-opacity:1;stroke:none;stroke-width:0.13836916;stroke-linecap:butt;stroke-linejoin:round;stroke-miterlimit:4;stroke-dasharray:none;stroke-dashoffset:0;stroke-opacity:1"
     d="m 290.62892,265.47127 c -10.95531,3.4377 -21.85112,7.0685 -32.75811,10.65811 -1.44025,0.53259 -2.97407,0.88449 -4.35211,1.54528 -4.76568,6.40286 -9.41095,12.89496 -14.11541,19.34309 -0.17471,0.73214 0.71581,1.23062 1.00387,1.85246 4.37174,6.01946 8.74479,12.03785 13.11893,18.05551 1.69744,0.74188 3.54904,1.18152 5.30511,1.80847 5.91577,1.90603 11.80646,3.89778 17.75382,5.70091 0.69093,-0.12525 0.90584,-0.99193 1.37887,-1.43382 4.45187,-5.96908 8.79328,-12.01938 13.18201,-18.03488 0.1807,-1.84369 0.0249,-3.74075 0.0777,-5.60474 -0.027,-11.07139 0.0763,-22.14428 -0.087,-33.21467 0.0184,-0.33567 -0.0874,-0.71067 -0.50768,-0.67572 z"
     id="path1061"
     inkscape:connector-curvature="0"
     transform="scale(0.75000001)" />
  <path
     style="opacity:1;fill:#000000;fill-opacity:1;stroke:none;stroke-width:0.13836916;stroke-linecap:butt;stroke-linejoin:round;stroke-miterlimit:4;stroke-dasharray:none;stroke-dashoffset:0;stroke-opacity:1"
     d="m 314.6348,273.41992 c -4.54127,5.98064 -8.89825,12.10728 -13.33658,18.16743 -3.18814,4.42874 -6.46762,8.81098 -9.59882,13.26872 -0.0795,5.5581 0.0109,11.14288 -0.003,16.71122 0.0362,2.55484 -0.0501,5.13388 0.0626,7.67358 0.41972,0.56363 1.34858,0.51866 1.96965,0.83447 7.03808,2.26822 14.04039,4.65699 21.11696,6.79983 3.27938,-0.90441 6.50448,-2.05857 9.75824,-3.07263 4.40273,-1.42672 8.80462,-2.85631 13.20702,-4.2842 0.57208,-0.48931 0.14429,-1.41647 0.27678,-2.08888 10e-4,-7.48475 0.003,-14.96949 0.004,-22.45424 -0.93784,-1.59745 -2.17918,-3.04032 -3.23244,-4.57898 -6.55402,-8.97917 -13.02058,-18.02418 -19.67656,-26.92769 -0.14954,-0.12666 -0.38048,-0.16622 -0.54773,-0.0486 z"
     id="path1063"
     inkscape:connector-curvature="0"
     transform="scale(0.75000001)" />
  <path
     style="opacity:1;fill:#000000;fill-opacity:1;stroke:none;stroke-width:0.13836916;stroke-linecap:butt;stroke-linejoin:round;stroke-miterlimit:4;stroke-dasharray:none;stroke-dashoffset:0;stroke-opacity:1"
     d="m 338.79656,265.43338 c -0.48559,0.58165 -0.10187,1.47876 -0.22577,2.1885 -0.0197,12.3495 -0.0393,24.699 -0.0588,37.04849 0.91306,1.56515 2.13137,2.97501 3.16051,4.48111 3.71412,5.07232 7.34568,10.20873 11.16083,15.20496 0.70597,0.27625 1.4452,-0.35064 2.15756,-0.45268 7.01946,-2.2541 14.02701,-4.54507 21.03937,-6.8212 1.22912,-1.38602 2.21756,-3.01259 3.35514,-4.49009 3.66089,-5.02857 7.2977,-10.0749 10.97931,-15.08825 0.18923,-0.73302 -0.7127,-1.23578 -0.99984,-1.85853 -4.37024,-5.98227 -8.68632,-12.01447 -13.08768,-17.96745 -3.44443,-1.36116 -7.01512,-2.39941 -10.52192,-3.59409 -8.88166,-2.90404 -17.77201,-5.78142 -26.6579,-8.67246 -0.10027,0.007 -0.20053,0.0145 -0.3008,0.0217 z"
     id="path1065"
     inkscape:connector-curvature="0"
     transform="scale(0.75000001)" />
  <path
     style="opacity:1;fill:#000000;fill-opacity:1;stroke:none;stroke-width:0.13836916;stroke-linecap:butt;stroke-linejoin:round;stroke-miterlimit:4;stroke-dasharray:none;stroke-dashoffset:0;stroke-opacity:1"
     d="m 390.66288,232.99023 c -12.25635,3.88312 -24.48269,7.86364 -36.69014,11.89816 -0.63539,0.10587 -0.47674,0.79179 -0.11439,1.11773 7.37647,10.40781 14.94232,20.68 22.42121,31.01428 1.69697,0.74285 3.54813,1.18389 5.30373,1.81197 2.0255,0.662 4.57626,1.49365 6.27871,2.05039 3.79577,1.22773 7.58101,2.49092 11.39378,3.66418 0.69778,-0.0692 0.95355,-0.9395 1.4183,-1.37442 4.49783,-5.97624 8.83278,-12.07297 13.24627,-18.11144 0.17989,-1.84374 0.0241,-3.74058 0.0764,-5.6045 7e-5,-6.23732 3.7e-4,-12.47463 6.1e-4,-18.71195 -0.30451,-0.70405 -1.33884,-0.58876 -1.95302,-0.93289 -7.04453,-2.30055 -14.08809,-4.60633 -21.15834,-6.82627 -0.0729,0.016 -0.15112,-0.0207 -0.22309,0.005 z"
     id="path1067"
     inkscape:connector-curvature="0"
     transform="scale(0.75000001)" />
  <path
     style="opacity:1;fill:#000000;fill-opacity:1;stroke:none;stroke-width:0.13836916;stroke-linecap:butt;stroke-linejoin:round;stroke-miterlimit:4;stroke-dasharray:none;stroke-dashoffset:0;stroke-opacity:1"
     d="m 399.27723,180.86007 c -7.5845,2.3697 -15.13213,4.86351 -22.65487,7.42304 -0.78073,0.42046 -1.10905,1.38986 -1.70464,2.0265 -7.17285,9.832 -14.36127,19.65493 -21.4237,29.56579 -0.1349,0.81513 1.04153,0.70633 1.53592,1.0074 11.83376,3.87499 23.66396,7.76255 35.52544,11.55137 1.60727,-0.30786 3.1578,-0.96501 4.73948,-1.41445 6.14838,-1.96695 12.28371,-3.97416 18.42527,-5.9624 0.57212,-0.48931 0.14411,-1.41647 0.27652,-2.08888 1e-4,-7.46322 3.6e-4,-14.92643 6.8e-4,-22.38965 -0.93841,-1.59725 -2.1803,-3.03975 -3.23414,-4.57815 -3.69397,-5.0229 -7.27123,-10.13925 -11.10508,-15.055 -0.0973,-0.0934 -0.25677,-0.091 -0.38088,-0.0856 z"
     id="path1069"
     inkscape:connector-curvature="0"
     transform="scale(0.75000001)" />
  <path
     style="opacity:1;fill:#000000;fill-opacity:1;stroke:none;stroke-width:0.13836916;stroke-linecap:butt;stroke-linejoin:round;stroke-miterlimit:4;stroke-dasharray:none;stroke-dashoffset:0;stroke-opacity:1"
     d="m 352.98682,141.02601 c -0.68476,0.27541 -0.93082,1.15969 -1.43967,1.66782 -4.3371,5.92082 -8.64007,11.86657 -12.95676,17.80231 -0.17991,1.84373 -0.0242,3.74057 -0.0765,5.6045 -4.1e-4,11.17159 -8.2e-4,22.34317 -10e-4,33.51475 0.25948,0.80804 1.18937,0.0622 1.72635,-0.002 11.92906,-3.8675 23.86087,-7.72748 35.78287,-11.6168 1.22768,-1.387 2.21645,-3.01243 3.35331,-4.49007 3.6353,-5.0368 7.33091,-10.03997 10.93286,-15.09477 0.008,-0.72753 -0.73291,-1.26281 -1.04526,-1.8905 -4.25756,-6.03836 -8.64606,-11.98594 -12.98016,-17.96735 -3.47814,-1.34081 -7.07059,-2.40372 -10.60548,-3.59807 -4.14952,-1.31125 -8.25775,-2.77171 -12.45845,-3.91059 -0.0764,-0.013 -0.15416,-0.0242 -0.23191,-0.0193 z"
     id="path1071"
     inkscape:connector-curvature="0"
     transform="scale(0.75000001)" />
  <path
     style="opacity:1;fill:#000000;fill-opacity:1;stroke:none;stroke-width:0.13836916;stroke-linecap:butt;stroke-linejoin:round;stroke-miterlimit:4;stroke-dasharray:none;stroke-dashoffset:0;stroke-opacity:1"
     d="m 314.80069,128.55257 c -7.64668,2.35874 -15.22402,4.94011 -22.85847,7.33753 -0.59521,0.47377 -0.15529,1.42066 -0.29055,2.09317 0,7.47394 0,14.94788 0,22.42182 0.93769,1.59756 2.17873,3.04064 3.23178,4.57946 6.55011,8.98486 13.03621,18.0199 19.64028,26.96297 0.54935,0.61063 1.02731,-0.34437 1.31004,-0.74339 7.39491,-10.17905 14.7889,-20.35878 22.1822,-30.539 0.17987,-1.84374 0.0241,-3.74058 0.0763,-5.60451 0,-6.25916 0,-12.51832 0,-18.77748 -0.27449,-0.68666 -1.27015,-0.56449 -1.85087,-0.89432 -7.07843,-2.29487 -14.14601,-4.62668 -21.2512,-6.83672 -0.0617,0.019 -0.12776,-0.0176 -0.18949,4.7e-4 z"
     id="path1073"
     inkscape:connector-curvature="0"
     transform="scale(0.75000001)" />
  <path
     style="opacity:1;fill:#000000;fill-opacity:1;stroke:none;stroke-width:0.13836916;stroke-linecap:butt;stroke-linejoin:round;stroke-miterlimit:4;stroke-dasharray:none;stroke-dashoffset:0;stroke-opacity:1"
     d="m 276.70705,141.04556 c -2.52894,0.52748 -4.951,1.49672 -7.42504,2.23562 -5.23547,1.72584 -10.5111,3.34813 -15.69419,5.22227 -2.96947,3.87399 -5.77506,7.88894 -8.67051,11.8249 -1.83454,2.57867 -3.78237,5.10471 -5.54609,7.71628 0.0237,0.72984 0.83361,1.25731 1.16665,1.90489 4.34366,5.97033 8.68031,11.94581 13.0192,17.91963 1.58174,0.68293 3.30312,1.08304 4.9404,1.669 10.71062,3.47192 21.40903,6.98191 32.12573,10.43476 0.84189,-0.01 0.43953,-1.08546 0.54833,-1.6193 0.0986,-12.54896 0.0457,-25.0985 0.0597,-37.64772 -0.93768,-1.59757 -2.17949,-3.04027 -3.23283,-4.57894 -3.62045,-4.97569 -7.22956,-9.96066 -10.85518,-14.93195 -0.1131,-0.1154 -0.27931,-0.1567 -0.43617,-0.14944 z"
     id="path1075"
     inkscape:connector-curvature="0"
     transform="scale(0.75000001)" />
  <path
     style="opacity:1;fill:#ff8a00;fill-opacity:1;stroke:none;stroke-width:0.27673832;stroke-linecap:butt;stroke-linejoin:round;stroke-miterlimit:4;stroke-dasharray:none;stroke-dashoffset:0;stroke-opacity:1"
     d="m 291.88605,250.29417 c -0.44583,2.03655 -0.0504,4.31327 -0.18448,6.43872 0.13038,2.4356 -0.25876,4.96287 0.26647,7.34921 0.82058,0.75114 2.01984,-0.40572 2.95791,-0.46088 3.37934,-1.14323 6.8313,-2.13884 10.13642,-3.46614 0.28362,-1.02095 -1.08969,-1.78176 -1.44105,-2.67998 -1.33672,-1.65259 -2.37984,-3.68827 -4.13866,-4.92711 -2.54346,-0.6731 -5.04429,-1.7921 -7.59661,-2.25382 z"
     id="path1195"
     inkscape:connector-curvature="0"
     transform="scale(0.75000001)" />
  <path
     style="opacity:1;fill:#ff8a00;fill-opacity:1;stroke:none;stroke-width:0.27673832;stroke-linecap:butt;stroke-linejoin:round;stroke-miterlimit:4;stroke-dasharray:none;stroke-dashoffset:0;stroke-opacity:1"
     d="m 285.53838,233.58029 c -2.60935,3.72641 -5.48619,7.33269 -7.94785,11.1188 0.78218,0.96896 2.56977,0.92884 3.72222,1.51951 3.18454,0.96182 6.32555,2.24789 9.54364,2.99824 0.72594,-0.97294 0.22266,-2.47041 0.42092,-3.62574 -0.12344,-1.77326 0.28503,-3.69732 -0.21504,-5.37131 -1.66102,-2.23482 -3.21025,-4.56388 -4.96092,-6.72673 -0.22789,-0.0256 -0.3884,-0.16573 -0.56297,0.0872 z"
     id="path1197"
     inkscape:connector-curvature="0"
     transform="scale(0.75000001)" />
  <path
     style="opacity:1;fill:#ff8a00;fill-opacity:1;stroke:none;stroke-width:0.27673832;stroke-linecap:butt;stroke-linejoin:round;stroke-miterlimit:4;stroke-dasharray:none;stroke-dashoffset:0;stroke-opacity:1"
     d="m 290.52985,216.27579 c -4.29853,1.35121 -8.68188,2.6418 -12.862,4.23454 0.0664,1.24342 1.54293,2.25572 2.1327,3.40856 1.9326,2.63638 3.82593,5.3033 5.81124,7.90002 1.06977,0.29979 1.3778,-1.4695 2.1021,-2.01396 1.17129,-1.68851 2.51881,-3.28978 3.56723,-5.04208 -0.13354,-2.76312 0.27402,-5.6295 -0.28983,-8.3393 -0.10161,-0.14554 -0.2977,-0.18911 -0.46144,-0.14778 z"
     id="path1199"
     inkscape:connector-curvature="0"
     transform="scale(0.75000001)" />
  <path
     style="opacity:1;fill:#ff8a00;fill-opacity:1;stroke:none;stroke-width:0.27673832;stroke-linecap:butt;stroke-linejoin:round;stroke-miterlimit:4;stroke-dasharray:none;stroke-dashoffset:0;stroke-opacity:1"
     d="m 291.88748,200.97341 c -0.44909,2.03562 -0.051,4.31412 -0.18591,6.43967 0.11564,2.50787 -0.20904,5.13074 0.29078,7.57421 1.46901,0.16796 2.92737,-0.88031 4.38178,-1.15933 1.67033,-0.77506 4.01533,-0.65538 4.85539,-2.58674 1.28168,-1.86892 2.78132,-3.62536 3.9158,-5.57666 -0.50949,-1.0146 -2.08972,-0.94367 -3.0212,-1.46854 -3.40329,-1.05979 -6.79661,-2.45201 -10.23664,-3.22261 z"
     id="path1201"
     inkscape:connector-curvature="0"
     transform="scale(0.75000001)" />
  <path
     style="opacity:1;fill:#ff8a00;fill-opacity:1;stroke:none;stroke-width:0.27673832;stroke-linecap:butt;stroke-linejoin:round;stroke-miterlimit:4;stroke-dasharray:none;stroke-dashoffset:0;stroke-opacity:1"
     d="m 314.90898,193.65519 c -1.80678,1.66855 -3.07237,3.94712 -4.61876,5.88301 -1.19762,1.81421 -2.76341,3.46896 -3.73341,5.38177 1.73527,1.03304 3.95362,1.35312 5.87497,2.10835 1.30181,0.45964 2.65051,1.08461 3.96857,0.27361 2.24802,-0.80264 4.68737,-1.29509 6.80169,-2.33287 -0.83105,-1.91078 -2.49519,-3.52007 -3.63507,-5.31897 -1.53631,-1.93263 -2.8072,-4.19786 -4.50415,-5.93737 l -0.14287,-0.059 z"
     id="path1203"
     inkscape:connector-curvature="0"
     transform="scale(0.75000001)" />
  <path
     style="opacity:1;fill:#ff8a00;fill-opacity:1;stroke:none;stroke-width:0.27673832;stroke-linecap:butt;stroke-linejoin:round;stroke-miterlimit:4;stroke-dasharray:none;stroke-dashoffset:0;stroke-opacity:1"
     d="m 337.62254,200.93766 c -4.35526,1.42353 -8.82079,2.70045 -13.06698,4.33369 0.0669,1.24331 1.5419,2.25609 2.13132,3.40909 1.40893,1.57311 2.13608,4.09695 4.50191,4.38967 2.10696,0.65439 4.17191,1.53324 6.32221,2.00727 0.96802,-0.61755 0.3873,-2.17578 0.6055,-3.14421 -0.0189,-3.60401 0.15438,-7.2694 -0.0783,-10.83452 -0.0254,-0.17619 -0.28419,-0.15232 -0.41568,-0.16099 z"
     id="path1205"
     inkscape:connector-curvature="0"
     transform="scale(0.75000001)" />
  <path
     style="opacity:1;fill:#ff8a00;fill-opacity:1;stroke:none;stroke-width:0.27673832;stroke-linecap:butt;stroke-linejoin:round;stroke-miterlimit:4;stroke-dasharray:none;stroke-dashoffset:0;stroke-opacity:1"
     d="m 338.92392,216.31679 c -0.63596,1.31737 -0.20373,3.00519 -0.36134,4.45471 0.21851,1.86467 -0.64916,4.09639 0.92818,5.53659 1.37433,1.84451 2.61764,3.80447 4.12145,5.54419 1.06139,0.0976 1.37176,-1.50469 2.09351,-2.09993 2.10412,-2.88772 4.25795,-5.74505 6.24627,-8.71342 -0.07,-1.101 -1.76767,-0.94544 -2.53012,-1.45048 -3.39544,-1.15243 -6.77312,-2.39151 -10.23482,-3.32648 l -0.23893,0.0498 z"
     id="path1207"
     inkscape:connector-curvature="0"
     transform="scale(0.75000001)" />
  <path
     style="opacity:1;fill:#ff8a00;fill-opacity:1;stroke:none;stroke-width:0.27673832;stroke-linecap:butt;stroke-linejoin:round;stroke-miterlimit:4;stroke-dasharray:none;stroke-dashoffset:0;stroke-opacity:1"
     d="m 343.70946,233.61462 c -1.93739,2.0921 -3.5431,4.57143 -5.14688,6.91779 0.14457,2.78452 -0.28165,5.65469 0.23692,8.39555 0.77011,0.75689 1.93401,-0.47763 2.82342,-0.4778 3.34971,-1.1239 6.74992,-2.11519 10.05116,-3.37437 0.59788,-0.87227 -0.78892,-1.7291 -1.06188,-2.52724 -2.15368,-2.99663 -4.11249,-6.20541 -6.59432,-8.92774 -0.0955,-0.0423 -0.2062,-9.1e-4 -0.30842,-0.006 z"
     id="path1209"
     inkscape:connector-curvature="0"
     transform="scale(0.75000001)" />
  <path
     style="opacity:1;fill:#ff8a00;fill-opacity:1;stroke:none;stroke-width:0.27673832;stroke-linecap:butt;stroke-linejoin:round;stroke-miterlimit:4;stroke-dasharray:none;stroke-dashoffset:0;stroke-opacity:1"
     d="m 337.62397,250.24078 c -2.719,0.86939 -5.50164,1.63911 -8.13623,2.7062 -1.59722,2.2527 -3.35931,4.40291 -4.81319,6.75048 0.17373,1.03193 1.72346,0.89643 2.47901,1.37602 3.43218,1.14316 6.85823,2.37926 10.34886,3.30321 0.98229,-0.60233 0.39363,-2.17597 0.61409,-3.14135 -0.0189,-3.60353 0.15439,-7.26845 -0.0783,-10.83309 -0.0254,-0.1763 -0.28283,-0.15119 -0.41425,-0.16147 z"
     id="path1211"
     inkscape:connector-curvature="0"
     transform="scale(0.75000001)" />
  <path
     style="opacity:1;fill:#ff8a00;fill-opacity:1;stroke:none;stroke-width:0.27673832;stroke-linecap:butt;stroke-linejoin:round;stroke-miterlimit:4;stroke-dasharray:none;stroke-dashoffset:0;stroke-opacity:1"
     d="m 314.81698,257.75731 c -2.7495,0.71864 -5.52976,1.58919 -8.12838,2.66202 0.0485,1.20367 1.48557,2.18129 2.03859,3.29574 2.07735,2.69694 3.88687,5.69849 6.13079,8.20818 1.56021,-1.38197 2.57694,-3.46047 3.93557,-5.1006 1.37599,-2.02546 3.0139,-3.93376 4.06766,-6.14702 -0.50121,-1.05374 -2.14414,-0.97638 -3.11082,-1.51006 -1.63126,-0.47638 -3.24738,-1.18374 -4.93341,-1.40826 z"
     id="path1213"
     inkscape:connector-curvature="0"
     transform="scale(0.75000001)" />
  <path
     style="opacity:1;fill:#ff8a00;fill-opacity:1;stroke:none;stroke-width:0.27673832;stroke-linecap:butt;stroke-linejoin:round;stroke-miterlimit:4;stroke-dasharray:none;stroke-dashoffset:0;stroke-opacity:1"
     d="m 314.86332,337.49003 c -7.66234,2.2495 -15.21688,4.85745 -22.82368,7.28867 -0.65169,1.2023 -0.10111,2.89629 -0.2944,4.28353 0.02,6.80014 -0.16796,13.63238 -0.0188,20.4126 7.65896,10.40373 15.05849,21.00798 22.98385,31.20969 1.05802,0.24042 1.43522,-1.5072 2.15505,-2.11553 7.06456,-9.67792 14.09794,-19.37862 21.14484,-29.06985 0.13908,-8.10333 -0.0595,-16.25873 -0.05,-24.38199 -0.94559,-0.98783 -2.72729,-0.97994 -3.98927,-1.58735 -6.36683,-2.00267 -12.68037,-4.27886 -19.10755,-6.03977 z"
     id="path1215"
     inkscape:connector-curvature="0"
     transform="scale(0.75000001)" />
  <path
     style="opacity:1;fill:#56b4e9;fill-opacity:1;stroke:none;stroke-width:0.27673832;stroke-linecap:butt;stroke-linejoin:round;stroke-miterlimit:4;stroke-dasharray:none;stroke-dashoffset:0;stroke-opacity:1"
     d="m 314.79219,208.46297 c -4.90832,1.30475 -9.7501,2.95611 -14.45529,4.86754 -2.95589,3.92909 -5.90665,7.95073 -8.68205,12.0046 0.0519,4.99284 -0.10248,10.01833 0.0763,14.99111 2.98525,4.00929 5.79747,8.20383 8.88178,12.10566 4.75823,1.49101 9.43188,3.34318 14.2937,4.45758 2.34644,-0.19434 4.51902,-1.42104 6.79893,-1.98343 2.5395,-0.88062 5.17009,-1.58553 7.64969,-2.58426 2.88953,-4.07738 5.96509,-8.06031 8.7402,-12.19577 -0.0514,-5.02025 0.1017,-10.07271 -0.0758,-15.07309 -2.9738,-4.01751 -5.79966,-8.18234 -8.86414,-12.10948 -4.78525,-1.47697 -9.50199,-3.30156 -14.3633,-4.48046 z"
     id="path1217"
     inkscape:connector-curvature="0"
     transform="scale(0.75000001)" />
</svg>
